#N canvas 720 324 366 150 10;
#X obj 23 15 inlet;
#X obj 23 103 outlet;
#X obj 23 40 select 0 1;
#X msg 23 73 1;
#X msg 51 73 0;
#X msg 101 74 invalid input - only 0 and 1 are allwoed;
#X obj 101 98 print !object;
#X connect 0 0 2 0;
#X connect 2 0 3 0;
#X connect 2 1 4 0;
#X connect 2 2 5 0;
#X connect 3 0 1 0;
#X connect 4 0 1 0;
#X connect 5 0 6 0;
