#N canvas 482 194 236 278 10;
#X obj -68 16 inlet;
#X obj -28 89 select 1;
#X msg -28 110 0;
#X msg 2 110 1;
#X obj -59 145 spigot;
#X obj 3 20 inlet;
#X obj -60 217 outlet;
#X obj -28 68 > 0;
#X connect 0 0 4 0;
#X connect 1 0 2 0;
#X connect 1 1 3 0;
#X connect 2 0 4 1;
#X connect 3 0 4 1;
#X connect 4 0 6 0;
#X connect 5 0 7 0;
#X connect 7 0 1 0;
