#N canvas 52 569 446 360 10;
#X obj 100 75 r~ out2;
#X obj 76 201 *~;
#X obj 113 160 hsl 128 15 0 5 0 0 empty empty empty -2 -8 0 10 -262144
-1 -1 1380 1;
#X obj 70 321 dac~;
#X obj 159 207 p_sigrapher;
#X obj 60 113 p_AB~;
#X obj 108 96 tgl 15 0 empty empty empty 17 7 0 10 -262144 -1 -1 0
1;
#X obj 76 239 clip~ -1 1;
#X obj 218 60 / 127;
#X obj 255 177 *;
#X obj 254 112 select 0 127;
#X obj 254 135 bng 15 250 50 0 empty empty empty 17 7 0 10 -262144
-1 -1;
#X obj 288 134 bng 15 250 50 0 empty empty empty 17 7 0 10 -262144
-1 -1;
#X msg 288 155 6;
#X msg 254 155 1;
#X obj 51 74 r~ out1;
#X obj 220 -1 p_ctlin;
#X obj 255 60 p_ctlin;
#X connect 0 0 5 1;
#X connect 1 0 7 0;
#X connect 2 0 1 1;
#X connect 5 0 1 0;
#X connect 6 0 5 2;
#X connect 7 0 4 0;
#X connect 7 0 3 0;
#X connect 7 0 3 1;
#X connect 8 0 9 0;
#X connect 9 0 2 0;
#X connect 10 0 11 0;
#X connect 10 1 12 0;
#X connect 11 0 14 0;
#X connect 12 0 13 0;
#X connect 13 0 9 1;
#X connect 14 0 9 1;
#X connect 15 0 5 0;
#X connect 16 0 8 0;
#X connect 17 0 10 0;
