#N canvas 744 590 223 250 12;
#X obj 47 49 inlet;
#X obj 117 49 inlet;
#X obj 50 142 +;
#X floatatom 120 13 5 0 0 0 - - - 0 0 1, f 5;
#X floatatom 45 14 5 0 0 0 - - - 0 0 1, f 5;
#X obj 50 98 f;
#X obj 101 97 t b f;
#X obj 50 171 outlet;
#X connect 2 0 7 0;
#X connect 3 0 6 0;
#X connect 4 0 5 0;
#X connect 5 0 2 0;
#X connect 6 0 5 0;
#X connect 6 1 2 1;
