#N canvas 85 328 1656 699 10;
#X obj 159 17 inlet~;
#X obj 185 458 outlet~;
#X obj 159 387 *~;
#X obj 208 387 *~;
#X obj 52 255 cnv 15 1 1 empty \$0_txt A 0 6 0 14 #fcfcfc #000000 0
;
#X obj 655 30 inlet;
#X obj 208 17 inlet~;
#X obj 672 94 < 0;
#X obj 702 94 > 1;
#X obj 753 244 print p_ABX~_INVALID_INPUT;
#X obj 655 139 clip 0 1;
#X obj 833 85 hsl 128 15 0 1 0 0 empty empty empty -2 -8 0 10 #fcfcfc
#000000 #000000 0 1 0 1;
#X floatatom 655 192 5 0 0 0 - - - 0 0 1, f 5;
#X obj 339 136 PI;
#X obj 339 209 sig~;
#X obj 339 95 loadbang;
#X obj 339 118 bng 15 250 50 0 empty empty empty 17 7 0 10 #fcfcfc
#000000 #000000 1;
#X msg 405 163 1;
#X floatatom 339 188 22 0 0 0 - - - 0 0 1, f 22;
#X obj 339 165 * 0.5;
#X obj 351 338 expr~ sin($v1);
#X obj 499 252 line~;
#X msg 499 227 \$1 10;
#X obj 464 306 *~;
#X obj 479 10 inlet~;
#X text 166 42 SIGNAL;
#X text 486 37 CV AB IN (0-1);
#X obj 479 72 clip~ 0 1;
#X text 703 31 numbers in;
#X obj 621 498 snapshot~;
#X obj 621 447 tgl 15 0 empty empty empty 17 7 0 10 #fcfcfc #000000
#000000 1 1 1;
#X obj 621 466 metro 100;
#X obj 621 425 loadbang;
#X obj 762 163 select 1;
#X obj 655 164 expr 1 - \\$f1;
#X floatatom 621 523 5 0 0 0 - - - 0 0 1, f 5;
#X obj 464 338 expr~ cos($v1);
#X obj 531 498 snapshot~;
#X floatatom 531 523 5 0 0 0 - - - 0 0 1, f 5;
#X obj 22 23 vsl 22 35 0 1 0 0 empty empty empty 0 -9 0 10 #fcfcfc
#000000 #000000 234 1 0 0;
#X obj 46 23 vsl 22 35 0 1 0 0 empty empty empty 0 -9 0 10 #fcfcfc
#000000 #000000 3392 1 0 0;
#X obj 290 566 outlet~;
#X obj 311 507 *~;
#X obj 360 507 *~;
#X obj 365 566 outlet~;
#X connect 0 0 2 0;
#X connect 0 0 42 0;
#X connect 0 0 43 0;
#X connect 2 0 1 0;
#X connect 3 0 1 0;
#X connect 5 0 7 0;
#X connect 5 0 8 0;
#X connect 5 0 10 0;
#X connect 6 0 3 0;
#X connect 7 0 33 0;
#X connect 8 0 33 0;
#X connect 10 0 34 0;
#X connect 11 0 10 0;
#X connect 12 0 22 0;
#X connect 13 0 19 0;
#X connect 14 0 23 0;
#X connect 15 0 16 0;
#X connect 16 0 13 0;
#X connect 17 0 18 0;
#X connect 18 0 14 0;
#X connect 19 0 18 0;
#X connect 20 0 2 1;
#X connect 20 0 37 0;
#X connect 20 0 42 1;
#X connect 21 0 23 1;
#X connect 22 0 21 0;
#X connect 23 0 20 0;
#X connect 23 0 36 0;
#X connect 24 0 27 0;
#X connect 27 0 23 1;
#X connect 29 0 35 0;
#X connect 30 0 31 0;
#X connect 31 0 29 0;
#X connect 31 0 37 0;
#X connect 32 0 30 0;
#X connect 33 0 9 0;
#X connect 34 0 12 0;
#X connect 35 0 40 0;
#X connect 36 0 3 1;
#X connect 36 0 29 0;
#X connect 36 0 43 1;
#X connect 37 0 38 0;
#X connect 38 0 39 0;
#X connect 42 0 41 0;
#X connect 43 0 44 0;
#X coords 0 -1 1 1 50 45 2 20 20;
