#N canvas 666 427 916 505 10;
#X obj 159 17 inlet~;
#X obj 185 458 outlet~;
#X obj 292 338 line~;
#X obj 372 338 line~;
#X obj 159 387 *~;
#X obj 208 387 *~;
#X msg 281 274 1 20;
#X msg 323 274 0 20;
#X msg 361 274 1 20;
#X msg 403 274 0 20;
#X obj 509 60 route symbol float bang;
#X obj 469 130 select A B;
#X obj 644 214 print p_AB~_INVALID_INPUT;
#X obj 497 158 s \$0_B;
#X obj 469 179 s \$0_A;
#X obj 285 92 r \$0_A;
#X obj 352 90 r \$0_B;
#X obj 554 130 select 0 1;
#X obj 582 161 s \$0_B;
#X obj 554 181 s \$0_A;
#X obj 315 168 tgl 15 0 empty empty empty 17 7 0 10 -262144 -1 -1 0
1;
#X obj 315 189 select 0;
#X obj 599 95 s \$0_t;
#X obj 378 151 r \$0_t;
#X obj 36 25 cnv 15 1 1 empty \$0_txt A 0 6 0 14 -262144 -1 0;
#X msg 512 287 label A;
#X msg 528 269 label B;
#X obj 512 322 s \$0_txt;
#X obj 509 31 inlet;
#X obj 208 17 inlet~;
#X msg 285 117 0;
#X msg 352 117 1;
#X obj 235 66 loadbang;
#X connect 0 0 4 0;
#X connect 2 0 4 1;
#X connect 3 0 5 1;
#X connect 4 0 1 0;
#X connect 5 0 1 0;
#X connect 6 0 2 0;
#X connect 7 0 2 0;
#X connect 8 0 3 0;
#X connect 9 0 3 0;
#X connect 10 0 11 0;
#X connect 10 1 17 0;
#X connect 10 2 22 0;
#X connect 10 3 12 0;
#X connect 11 0 14 0;
#X connect 11 1 13 0;
#X connect 11 2 12 0;
#X connect 15 0 30 0;
#X connect 16 0 31 0;
#X connect 17 0 19 0;
#X connect 17 1 18 0;
#X connect 17 2 12 0;
#X connect 20 0 21 0;
#X connect 21 0 6 0;
#X connect 21 0 9 0;
#X connect 21 0 25 0;
#X connect 21 1 7 0;
#X connect 21 1 8 0;
#X connect 21 1 26 0;
#X connect 23 0 20 0;
#X connect 25 0 27 0;
#X connect 26 0 27 0;
#X connect 28 0 10 0;
#X connect 29 0 5 0;
#X connect 30 0 20 0;
#X connect 31 0 20 0;
#X connect 32 0 30 0;
#X coords 0 -1 1 1 40 21 2 20 20;
