#N canvas 282 228 1267 638 10;
#X obj 104 24 hradio 15 1 0 8 empty empty empty 0 -8 0 10 #fcfcfc #000000
#000000 0 1;
#X obj 110 132 select 0;
#X obj 119 198 line~;
#X msg 119 178 \$1 15;
#X obj 104 221 *~;
#X msg 110 155 1;
#X msg 142 156 0;
#X obj 179 198 line~;
#X msg 179 178 \$1 15;
#X obj 164 221 *~;
#X msg 170 155 1;
#X msg 202 156 0;
#X obj 239 198 line~;
#X msg 239 178 \$1 15;
#X obj 224 221 *~;
#X msg 230 155 1;
#X msg 262 156 0;
#X obj 299 198 line~;
#X msg 299 178 \$1 15;
#X obj 284 221 *~;
#X msg 290 155 1;
#X msg 322 156 0;
#X obj 359 198 line~;
#X msg 359 178 \$1 15;
#X obj 344 221 *~;
#X msg 350 155 1;
#X msg 382 156 0;
#X obj 419 198 line~;
#X msg 419 178 \$1 15;
#X obj 404 221 *~;
#X msg 410 155 1;
#X msg 442 156 0;
#X obj 479 198 line~;
#X msg 479 178 \$1 15;
#X obj 464 221 *~;
#X msg 470 155 1;
#X msg 502 156 0;
#X obj 539 198 line~;
#X msg 539 178 \$1 15;
#X obj 524 221 *~;
#X msg 530 155 1;
#X msg 562 156 0;
#X obj 170 132 select 1;
#X obj 230 132 select 2;
#X obj 290 132 select 3;
#X obj 350 132 select 4;
#X obj 410 132 select 5;
#X obj 470 132 select 6;
#X obj 530 132 select 7;
#X obj 104 96 inlet~;
#X obj 164 96 inlet~;
#X obj 224 96 inlet~;
#X obj 284 96 inlet~;
#X obj 344 96 inlet~;
#X obj 404 96 inlet~;
#X obj 464 96 inlet~;
#X obj 524 96 inlet~;
#X obj 320 307 outlet~;
#X connect 0 0 1 0;
#X connect 0 0 42 0;
#X connect 0 0 43 0;
#X connect 0 0 46 0;
#X connect 0 0 44 0;
#X connect 0 0 45 0;
#X connect 0 0 47 0;
#X connect 0 0 48 0;
#X connect 1 0 5 0;
#X connect 1 1 6 0;
#X connect 2 0 4 1;
#X connect 3 0 2 0;
#X connect 4 0 57 0;
#X connect 5 0 3 0;
#X connect 6 0 3 0;
#X connect 7 0 9 1;
#X connect 8 0 7 0;
#X connect 9 0 57 0;
#X connect 10 0 8 0;
#X connect 11 0 8 0;
#X connect 12 0 14 1;
#X connect 13 0 12 0;
#X connect 14 0 57 0;
#X connect 15 0 13 0;
#X connect 16 0 13 0;
#X connect 17 0 19 1;
#X connect 18 0 17 0;
#X connect 19 0 57 0;
#X connect 20 0 18 0;
#X connect 21 0 18 0;
#X connect 22 0 24 1;
#X connect 23 0 22 0;
#X connect 24 0 57 0;
#X connect 25 0 23 0;
#X connect 26 0 23 0;
#X connect 27 0 29 1;
#X connect 28 0 27 0;
#X connect 29 0 57 0;
#X connect 30 0 28 0;
#X connect 31 0 28 0;
#X connect 32 0 34 1;
#X connect 33 0 32 0;
#X connect 34 0 57 0;
#X connect 35 0 33 0;
#X connect 36 0 33 0;
#X connect 37 0 39 1;
#X connect 38 0 37 0;
#X connect 39 0 57 0;
#X connect 40 0 38 0;
#X connect 41 0 38 0;
#X connect 42 0 10 0;
#X connect 42 1 11 0;
#X connect 43 0 15 0;
#X connect 43 1 16 0;
#X connect 44 0 20 0;
#X connect 44 1 21 0;
#X connect 45 0 25 0;
#X connect 45 1 26 0;
#X connect 46 0 30 0;
#X connect 46 1 31 0;
#X connect 47 0 35 0;
#X connect 47 1 36 0;
#X connect 48 0 40 0;
#X connect 48 1 41 0;
#X connect 49 0 4 0;
#X connect 50 0 9 0;
#X connect 51 0 14 0;
#X connect 52 0 19 0;
#X connect 53 0 24 0;
#X connect 54 0 29 0;
#X connect 55 0 34 0;
#X connect 56 0 39 0;
#X coords 0 -1 1 1 128 24 2 100 20;
