#N canvas 846 347 749 506 10;
#X obj 319 170 clip~ -0.8 0.8;
#X obj 433 170 clip~ -0.8 0.8;
#X obj 112 119 hsl 128 15 0 1 0 0 \$0-clipamount empty empty -2 -8
0 10 -262144 -1 -1 0 1;
#X obj 399 119 * -1;
#X floatatom 211 102 5 0 0 0 - #0-clipamount -;
#X obj 319 70 inlet~;
#X obj 433 70 inlet~;
#X obj 319 375 outlet~;
#X obj 433 375 outlet~;
#X obj 531 82 r \$0-clipamount;
#X obj 144 203 log;
#X obj 144 157 r \$0-clipamount;
#X obj 87 271 hsl 128 15 0 5 0 0 empty empty empty -2 -8 0 10 -262144
-1 -1 0 1;
#X obj 144 244 + 1;
#X obj 144 224 * -1;
#X obj 154 315 line~;
#X msg 154 293 \$1 20;
#X obj 319 348 *~;
#X obj 433 347 *~;
#X obj 469 259 expr (($f1) + 0.02) * 2;
#X obj 54 178 expr ( $f1 ) * 1.6;
#X obj 109 37 loadbang;
#X msg 109 59 1;
#X connect 0 0 17 0;
#X connect 1 0 18 0;
#X connect 3 0 0 1;
#X connect 3 0 1 1;
#X connect 5 0 0 0;
#X connect 6 0 1 0;
#X connect 9 0 3 0;
#X connect 9 0 0 2;
#X connect 9 0 1 2;
#X connect 10 0 14 0;
#X connect 11 0 19 0;
#X connect 11 0 20 0;
#X connect 13 0 12 0;
#X connect 13 0 16 0;
#X connect 14 0 13 0;
#X connect 15 0 17 1;
#X connect 15 0 18 1;
#X connect 16 0 15 0;
#X connect 17 0 7 0;
#X connect 18 0 8 0;
#X connect 20 0 10 0;
#X connect 21 0 22 0;
#X connect 22 0 2 0;
#X coords 0 -1 1 1 151 36 1 100 100;
