#N canvas 128 72 1347 964 10;
#X obj 461 301 cnv 15 183 56 empty \$0_cnv empty 20 12 0 14 #fcfcfc
#404040 0;
#X obj 104 592 spigot;
#X obj 577 29 % 16;
#X floatatom 577 72 5 0 0 0 - - - 0 0 1, f 5;
#X floatatom 441 70 5 0 0 0 - - - 0 0 1, f 5;
#X text 473 70 device;
#X text 608 71 channel;
#X obj 104 615 spigot;
#X msg 351 261 set \$1;
#X msg 351 291 1;
#X obj 577 112 spigot;
#X obj 682 72 tgl 20 0 empty empty learn 24 7 0 10 #fcfcfc #000000
#000000 0 1 1;
#X obj 441 112 spigot;
#X obj 336 355 ==;
#X obj 182 355 ==;
#X floatatom 158 -4 5 0 0 0 - - - 0 0 1, f 5;
#X floatatom 232 -2 5 0 0 0 - - - 0 0 1, f 5;
#X floatatom 193 -4 5 0 0 0 - - - 0 0 1, f 5;
#X obj 441 29 expr ( \\$f1 / 16 ) + 1;
#X obj 441 49 int;
#X obj 227 230 t b f;
#X msg 197 255 set \$1;
#X obj 376 237 t b f;
#X text 207 357 filter device;
#X text 360 357 filter channel;
#X obj 104 808 outlet;
#X obj 627 303 bng 15 250 50 0 empty empty empty 17 7 0 10 #fcfcfc
#000000 #000000 1;
#X msg 585 278 0;
#X obj 585 257 delay 200;
#X text 614 278 disable learn mode;
#X text 594 301 learn;
#X obj 460 -34 print WARNING: Input not yet implemented;
#X obj 460 -74 inlet;
#X msg 460 -54 should accept set commands for device and channle: \$1
;
#X obj 512 303 bng 15 250 50 0 empty empty empty 17 7 0 10 #0c4410
#00fc04 #000000 1;
#X obj 574 303 tgl 15 0 empty empty empty 17 7 0 10 #541010 #c4fcc4
#000000 0 1 1;
#X obj 187 495 p_ab;
#X msg 203 467 1;
#X obj 237 495 p_ab;
#X msg 253 467 1;
#X obj 297 472 tgl 15 0 empty empty empty 17 7 0 10 #fcfcfc #000000
#000000 0 1 1;
#X text 529 301 all_ins;
#X floatatom 482 321 2 0 0 0 - - - 0 0 1, f 2;
#X floatatom 525 321 2 0 0 0 - - - 0 0 1, f 2;
#X msg 652 328 0;
#X obj 279 247 loadbang;
#X obj 187 -72 ctlin;
#X msg -51 276 \$1;
#X text 461 320 ch:;
#X text 498 320 dev:;
#X floatatom 566 321 2 0 0 0 - - - 0 0 1, f 2;
#X text 539 320 ctl:;
#X obj 38 355 ==;
#X obj 83 230 t b f;
#X msg 53 255 set \$1;
#X obj 137 495 p_ab;
#X msg 153 467 1;
#X text 63 357 filter controller;
#X obj 257 112 spigot;
#X obj 104 569 spigot;
#X floatatom 463 339 3 0 0 0 - - - 0 0 1, f 3;
#X obj 627 340 tgl 15 0 empty empty empty 17 7 0 10 #fcfcfc #000000
#000000 1 1 1;
#X obj 104 674 p_ab;
#X obj 120 640 / 127;
#X obj 838 204 !;
#X obj 805 231 spigot;
#X obj 854 234 metro 500;
#X text 794 254 blink learn mode indicator;
#X obj 682 28 loadbang;
#X msg 682 49 0;
#X text 483 340 val;
#X text 587 339 nrmlze;
#X obj 104 708 *;
#X msg 515 475 1;
#X text 508 339 mult;
#X floatatom 553 339 5 0 0 0 - - - 0 0 1, f 5;
#X obj 536 340 bng 15 250 50 0 empty empty empty 17 7 0 10 #fcfcfc
#000000 #000000 1;
#X obj 596 320 bng 15 250 50 0 empty empty empty 17 7 0 10 #5e5e5e
#00cb1c #000000 1;
#X text 613 319 <-sig;
#X obj 270 749 delay 10;
#X obj 470 707 s \$0_cnv;
#X obj 295 685 t b b;
#X msg 295 776 color 0;
#X msg 322 719 color 5;
#X msg 443 639 vis_size \$1 \$2;
#X floatatom 346 590 5 0 0 0 - - - 0 0 1, f 5;
#X floatatom 359 610 5 0 0 0 - - - 0 0 1, f 5;
#X obj 354 672 pack;
#X obj 385 638 t b f;
#X obj 1135 773 outlet;
#X msg 913 777 97 2 1 1 1 0.622047;
#X obj 825 50 bng 79 250 50 0 empty empty empty 17 7 0 10 #fcfcfc #000000
#000000 1;
#X floatatom 839 629 5 0 0 0 - - - 0 0 1, f 5;
#X floatatom 879 629 5 0 0 0 - - - 0 0 1, f 5;
#X floatatom 919 629 5 0 0 0 - - - 0 0 1, f 5;
#X floatatom 959 629 5 0 0 0 - - - 0 0 1, f 5;
#X msg 756 629 set;
#X floatatom 999 629 5 0 0 0 - - - 0 0 1, f 5;
#X obj 257 137 s \$0set_controller;
#X obj 441 137 s \$0set_device;
#X obj 577 137 s \$0set_channel;
#X obj 689 557 r \$0set_controller;
#X obj 803 557 r \$0set_device;
#X obj 894 557 r \$0set_channel;
#X obj 627 363 s \$0set_normalize;
#X obj 991 557 r \$0set_normalize;
#X text 128 708 multiply;
#X obj 553 383 s \$0set_multiply;
#X obj 1100 557 r \$0set_multiply;
#X msg 53 285 97;
#X msg 197 285 2;
#X obj 825 -29 bng 79 250 50 0 empty empty empty 17 7 0 10 #fcfcfc
#000000 #000000 1;
#X obj 904 50 bng 79 250 50 0 empty empty empty 17 7 0 10 #fcfcfc #000000
#000000 1;
#X obj 904 -29 bng 79 250 50 0 empty empty empty 17 7 0 10 #fcfcfc
#000000 #000000 1;
#X text 653 531 saving values:;
#X obj 1042 -66 inlet;
#X obj 891 405 f;
#X obj 921 405 f;
#X obj 951 405 f;
#X obj 981 405 f;
#X obj 1011 405 f;
#X floatatom 891 430 5 0 0 0 - - - 0 0 1, f 5;
#X floatatom 921 430 5 0 0 0 - - - 0 0 1, f 5;
#X floatatom 951 430 5 0 0 0 - - - 0 0 1, f 5;
#X floatatom 1011 430 5 0 0 0 - - - 0 0 1, f 5;
#X floatatom 981 430 5 0 0 0 - - - 0 0 1, f 5;
#X obj 872 373 bng 15 250 50 0 empty empty empty 17 7 0 10 #fcfcfc
#000000 #000000 1;
#X obj 828 347 t b b;
#X obj 828 325 loadbang;
#X text 650 438 loading values:;
#X obj 677 481 s \$0read_controller;
#X obj 801 481 s \$0read_device;
#X obj 902 481 s \$0read_channel;
#X obj 1009 481 s \$0read_normalize;
#X obj 1128 481 s \$0read_multiply;
#X obj 249 160 r \$0read_controller;
#X obj 433 159 r \$0read_device;
#X obj 569 160 r \$0read_channel;
#X obj 947 362 unpack f f f f f f;
#X obj 1041 405 f;
#X floatatom 1041 430 5 0 0 0 - - - 0 0 1, f 5;
#X obj 552 199 r \$0read_multiply;
#X obj 1238 481 s \$0read_value;
#X obj 1210 557 r \$0set_value;
#X floatatom 1039 629 5 0 0 0 - - - 0 0 1, f 5;
#X obj 855 688 pack s f f f f f f;
#X msg 855 714 \$1 \$2 \$3 \$4 \$5 \$6 \$7;
#X obj 162 740 s \$0set_value;
#X obj 1113 84 print LOADING;
#X obj 627 220 r \$0read_normalize;
#X obj 162 763 r \$0read_value;
#X connect 1 0 7 0;
#X connect 2 0 3 0;
#X connect 3 0 10 0;
#X connect 3 0 13 0;
#X connect 4 0 12 0;
#X connect 4 0 14 0;
#X connect 7 0 62 0;
#X connect 7 0 63 0;
#X connect 8 0 9 0;
#X connect 9 0 13 1;
#X connect 9 0 42 0;
#X connect 10 0 22 0;
#X connect 10 0 28 0;
#X connect 10 0 100 0;
#X connect 11 0 10 1;
#X connect 11 0 12 1;
#X connect 11 0 58 1;
#X connect 11 0 64 0;
#X connect 11 0 66 0;
#X connect 12 0 20 0;
#X connect 12 0 28 0;
#X connect 12 0 99 0;
#X connect 13 0 38 0;
#X connect 13 0 39 0;
#X connect 14 0 36 0;
#X connect 14 0 37 0;
#X connect 15 0 47 0;
#X connect 17 0 58 0;
#X connect 17 0 52 0;
#X connect 18 0 19 0;
#X connect 19 0 4 0;
#X connect 20 0 110 0;
#X connect 20 1 21 0;
#X connect 21 0 110 0;
#X connect 22 0 9 0;
#X connect 22 1 8 0;
#X connect 26 0 44 0;
#X connect 26 0 65 0;
#X connect 27 0 11 0;
#X connect 28 0 27 0;
#X connect 32 0 33 0;
#X connect 33 0 31 0;
#X connect 35 0 40 0;
#X connect 36 0 1 1;
#X connect 37 0 36 1;
#X connect 38 0 7 1;
#X connect 39 0 38 1;
#X connect 40 0 36 2;
#X connect 40 0 38 2;
#X connect 44 0 35 0;
#X connect 46 0 15 0;
#X connect 46 1 17 0;
#X connect 46 2 2 0;
#X connect 46 2 18 0;
#X connect 46 2 16 0;
#X connect 47 0 59 0;
#X connect 52 0 55 0;
#X connect 52 0 56 0;
#X connect 53 0 109 0;
#X connect 53 1 54 0;
#X connect 54 0 109 0;
#X connect 55 0 59 1;
#X connect 56 0 55 1;
#X connect 58 0 53 0;
#X connect 58 0 28 0;
#X connect 58 0 98 0;
#X connect 59 0 1 0;
#X connect 61 0 62 2;
#X connect 61 0 104 0;
#X connect 62 0 72 0;
#X connect 63 0 62 1;
#X connect 64 0 65 1;
#X connect 65 0 11 0;
#X connect 66 0 26 0;
#X connect 68 0 69 0;
#X connect 69 0 11 0;
#X connect 72 0 25 0;
#X connect 72 0 60 0;
#X connect 72 0 77 0;
#X connect 72 0 81 0;
#X connect 72 0 147 0;
#X connect 73 0 75 0;
#X connect 75 0 72 1;
#X connect 75 0 107 0;
#X connect 76 0 73 0;
#X connect 79 0 82 0;
#X connect 81 0 79 0;
#X connect 81 1 83 0;
#X connect 82 0 80 0;
#X connect 83 0 80 0;
#X connect 84 0 80 0;
#X connect 85 0 87 0;
#X connect 86 0 88 0;
#X connect 87 0 84 0;
#X connect 88 0 87 0;
#X connect 88 1 87 1;
#X connect 92 0 145 1;
#X connect 93 0 145 2;
#X connect 94 0 145 3;
#X connect 95 0 145 4;
#X connect 96 0 145 0;
#X connect 97 0 145 5;
#X connect 101 0 92 0;
#X connect 101 0 96 0;
#X connect 102 0 93 0;
#X connect 102 0 96 0;
#X connect 103 0 94 0;
#X connect 103 0 96 0;
#X connect 105 0 95 0;
#X connect 105 0 96 0;
#X connect 108 0 97 0;
#X connect 108 0 96 0;
#X connect 109 0 52 1;
#X connect 109 0 50 0;
#X connect 110 0 14 1;
#X connect 110 0 43 0;
#X connect 115 0 138 0;
#X connect 115 0 148 0;
#X connect 116 0 121 0;
#X connect 117 0 122 0;
#X connect 118 0 123 0;
#X connect 119 0 125 0;
#X connect 120 0 124 0;
#X connect 121 0 130 0;
#X connect 121 0 101 0;
#X connect 122 0 131 0;
#X connect 122 0 102 0;
#X connect 123 0 132 0;
#X connect 123 0 103 0;
#X connect 124 0 134 0;
#X connect 124 0 108 0;
#X connect 125 0 133 0;
#X connect 125 0 105 0;
#X connect 126 0 116 0;
#X connect 126 0 117 0;
#X connect 126 0 118 0;
#X connect 126 0 119 0;
#X connect 126 0 120 0;
#X connect 126 0 139 0;
#X connect 127 0 126 0;
#X connect 127 1 89 0;
#X connect 128 0 127 0;
#X connect 135 0 53 0;
#X connect 136 0 20 0;
#X connect 137 0 22 0;
#X connect 138 0 116 1;
#X connect 138 1 117 1;
#X connect 138 2 118 1;
#X connect 138 3 119 1;
#X connect 138 4 120 1;
#X connect 138 5 139 1;
#X connect 139 0 140 0;
#X connect 140 0 142 0;
#X connect 140 0 143 0;
#X connect 141 0 75 0;
#X connect 143 0 144 0;
#X connect 143 0 96 0;
#X connect 144 0 145 6;
#X connect 145 0 146 0;
#X connect 146 0 90 0;
#X connect 146 0 89 0;
#X connect 149 0 61 0;
#X connect 150 0 25 0;
#X coords 0 -1 1 1 185 58 1 460 300;
