#N canvas 177 1172 1001 865 10;
#X obj 461 301 cnv 15 183 56 empty \$0_cnv empty 20 12 0 14 #fcfcfc
#404040 0;
#X obj 104 592 spigot;
#X msg 197 285 3;
#X obj 577 99 % 16;
#X floatatom 577 142 5 0 0 0 - - - 0 0 1, f 5;
#X floatatom 441 140 5 0 0 0 - - - 0 0 1, f 5;
#X text 473 140 device;
#X text 608 141 channel;
#X obj 104 615 spigot;
#X msg 351 261 set \$1;
#X msg 351 291 1;
#X obj 577 162 spigot;
#X obj 682 142 tgl 20 0 empty empty learn 24 7 0 10 #fcfcfc #000000
#000000 0 1 1;
#X obj 441 162 spigot;
#X obj 336 355 ==;
#X obj 182 355 ==;
#X floatatom 158 66 5 0 0 0 - - - 0 0 1, f 5;
#X floatatom 232 68 5 0 0 0 - - - 0 0 1, f 5;
#X floatatom 193 66 5 0 0 0 - - - 0 0 1, f 5;
#X obj 441 99 expr ( \\$f1 / 16 ) + 1;
#X obj 441 119 int;
#X obj 227 230 t b f;
#X msg 197 255 set \$1;
#X obj 376 237 t b f;
#X text 207 357 filter device;
#X text 360 357 filter channel;
#X obj 104 741 outlet;
#X obj 627 303 bng 15 250 50 0 empty empty empty 17 7 0 10 #fcfcfc
#000000 #000000 1;
#X msg 585 278 0;
#X obj 585 257 delay 200;
#X text 614 278 disable learn mode;
#X text 594 301 learn;
#X obj 460 36 print WARNING: Input not yet implemented;
#X obj 460 -4 inlet;
#X msg 460 16 should accept set commands for device and channle: \$1
;
#X obj 512 303 bng 15 250 50 0 empty empty empty 17 7 0 10 #0c4410
#00fc04 #000000 1;
#X obj 574 303 tgl 15 0 empty empty empty 17 7 0 10 #541010 #c4fcc4
#000000 0 1 1;
#X obj 187 495 p_ab;
#X msg 203 467 1;
#X obj 237 495 p_ab;
#X msg 253 467 1;
#X obj 297 472 tgl 15 0 empty empty empty 17 7 0 10 #fcfcfc #000000
#000000 0 1 1;
#X text 529 301 all_ins;
#X floatatom 482 321 2 0 0 0 - - - 0 0 1, f 2;
#X floatatom 525 321 2 0 0 0 - - - 0 0 1, f 2;
#X msg 652 328 0;
#X obj 279 247 loadbang;
#X obj 187 -2 ctlin;
#X msg -51 276 \$1;
#X text 461 320 ch:;
#X text 498 320 dev:;
#X floatatom 566 321 2 0 0 0 - - - 0 0 1, f 2;
#X text 539 320 ctl:;
#X msg 53 285 98;
#X obj 38 355 ==;
#X obj 83 230 t b f;
#X msg 53 255 set \$1;
#X obj 137 495 p_ab;
#X msg 153 467 1;
#X text 63 357 filter controller;
#X obj 257 162 spigot;
#X obj 104 569 spigot;
#X floatatom 463 339 3 0 0 0 - - - 0 0 1, f 3;
#X obj 627 340 tgl 15 0 empty empty empty 17 7 0 10 #fcfcfc #000000
#000000 0 1 1;
#X obj 104 674 p_ab;
#X obj 120 640 / 127;
#X obj 838 204 !;
#X obj 805 231 spigot;
#X obj 854 234 metro 500;
#X text 794 254 blink learn mode indicator;
#X obj 682 98 loadbang;
#X msg 682 119 0;
#X text 483 340 val;
#X text 587 339 nrmlze;
#X obj 104 708 *;
#X msg 515 365 1;
#X text 508 339 mult;
#X floatatom 553 339 5 0 0 0 - - - 0 0 1, f 5;
#X obj 545 364 loadbang;
#X obj 536 340 bng 15 250 50 0 empty empty empty 17 7 0 10 #fcfcfc
#000000 #000000 1;
#X obj 596 320 bng 15 250 50 0 empty empty empty 17 7 0 10 #5e5e5e
#00cb1c #000000 1;
#X text 613 319 <-sig;
#X obj 510 742 delay 10;
#X obj 708 676 s \$0_cnv;
#X obj 533 654 t b b;
#X msg 526 787 color 0;
#X msg 560 688 color 5;
#X msg 644 568 vis_size \$1 \$2;
#X floatatom 547 519 5 0 0 0 - - - 0 0 1, f 5;
#X floatatom 560 539 5 0 0 0 - - - 0 0 1, f 5;
#X obj 555 601 pack;
#X obj 586 567 t b f;
#X connect 1 0 8 0;
#X connect 2 0 15 1;
#X connect 2 0 44 0;
#X connect 3 0 4 0;
#X connect 4 0 11 0;
#X connect 4 0 14 0;
#X connect 5 0 13 0;
#X connect 5 0 15 0;
#X connect 8 0 64 0;
#X connect 8 0 65 0;
#X connect 9 0 10 0;
#X connect 10 0 14 1;
#X connect 10 0 43 0;
#X connect 11 0 23 0;
#X connect 11 0 29 0;
#X connect 12 0 11 1;
#X connect 12 0 13 1;
#X connect 12 0 60 1;
#X connect 12 0 66 0;
#X connect 12 0 68 0;
#X connect 13 0 21 0;
#X connect 13 0 29 0;
#X connect 14 0 39 0;
#X connect 14 0 40 0;
#X connect 15 0 37 0;
#X connect 15 0 38 0;
#X connect 16 0 48 0;
#X connect 18 0 60 0;
#X connect 18 0 54 0;
#X connect 19 0 20 0;
#X connect 20 0 5 0;
#X connect 21 0 2 0;
#X connect 21 1 22 0;
#X connect 22 0 2 0;
#X connect 23 0 10 0;
#X connect 23 1 9 0;
#X connect 27 0 45 0;
#X connect 27 0 67 0;
#X connect 28 0 12 0;
#X connect 29 0 28 0;
#X connect 33 0 34 0;
#X connect 34 0 32 0;
#X connect 36 0 41 0;
#X connect 37 0 1 1;
#X connect 38 0 37 1;
#X connect 39 0 8 1;
#X connect 40 0 39 1;
#X connect 41 0 37 2;
#X connect 41 0 39 2;
#X connect 45 0 36 0;
#X connect 46 0 10 0;
#X connect 46 0 2 0;
#X connect 47 0 16 0;
#X connect 47 1 18 0;
#X connect 47 2 3 0;
#X connect 47 2 19 0;
#X connect 47 2 17 0;
#X connect 48 0 61 0;
#X connect 53 0 54 1;
#X connect 53 0 51 0;
#X connect 54 0 57 0;
#X connect 54 0 58 0;
#X connect 55 0 53 0;
#X connect 55 1 56 0;
#X connect 56 0 53 0;
#X connect 57 0 61 1;
#X connect 58 0 57 1;
#X connect 60 0 55 0;
#X connect 60 0 29 0;
#X connect 61 0 1 0;
#X connect 63 0 64 2;
#X connect 64 0 74 0;
#X connect 65 0 64 1;
#X connect 66 0 67 1;
#X connect 67 0 12 0;
#X connect 68 0 27 0;
#X connect 70 0 71 0;
#X connect 71 0 12 0;
#X connect 74 0 26 0;
#X connect 74 0 62 0;
#X connect 74 0 80 0;
#X connect 74 0 84 0;
#X connect 75 0 77 0;
#X connect 77 0 74 1;
#X connect 78 0 75 0;
#X connect 79 0 75 0;
#X connect 82 0 85 0;
#X connect 84 0 82 0;
#X connect 84 1 86 0;
#X connect 85 0 83 0;
#X connect 86 0 83 0;
#X connect 87 0 83 0;
#X connect 88 0 90 0;
#X connect 89 0 91 0;
#X connect 90 0 87 0;
#X connect 91 0 90 0;
#X connect 91 1 90 1;
#X coords 0 -1 1 1 185 58 1 460 300;
