#N canvas 8 25 1344 1027 12;
#X obj 91 352 inlet~;
#X obj 242 1086 outlet~;
#X obj 439 1182 p_sigrapher;
#X obj 274 173 flatgui/knob 32 32 0.2 3 0 1 empty empty gain -2 -8
0 8 #fcfcfc #000000 #000000 2.5125 1 1 2 3 4;
#X obj 94 407 *~;
#X obj 149 628 >~ 0;
#X obj 662 1182 p_sigrapher;
#X obj 149 657 *~;
#X floatatom 275 397 8 0 0 0 - - - 0 0 1, f 8;
#X obj 315 425 * -1;
#X obj 315 453 s \$0negClip;
#X obj 225 454 s \$0posClip;
#X obj 174 600 r \$0posClip;
#X obj 167 568 -~;
#X obj 185 542 r \$0posClip;
#X obj 131 850 clip~ 0 0;
#X obj 173 814 r \$0posClip;
#X obj 796 1108 tgl 15 0 empty empty empty 17 7 0 10 #fcfcfc #000000
#000000 0 1 1;
#X obj 883 1182 p_sigrapher;
#X obj 131 954 +~;
#X obj 1113 1182 p_sigrapher;
#X obj 149 743 *~ 1;
#X obj 442 441 s \$0thru;
#X obj 174 717 r \$0thru;
#X text 184 628 if is in clip range;
#X text 195 567 remove offset by cliprangeamount;
#X text 152 678 signal that is in clip range \, offset removed;
#X text 203 850 only pass signal below clip range;
#X text 160 958 re-combine clipped and cropped signals;
#X obj 539 657 *~;
#X obj 521 954 +~;
#X obj 539 743 *~ 1;
#X obj 564 717 r \$0thru;
#X text 574 628 if is in clip range;
#X text 585 567 remove offset by cliprangeamount;
#X text 542 678 signal that is in clip range \, offset removed;
#X text 593 850 only pass signal below clip range;
#X text 550 958 re-combine clipped and cropped signals;
#X obj 539 628 <~ 0;
#X obj 564 600 r \$0negClip;
#X obj 563 814 r \$0negClip;
#X obj 576 542 r \$0negClip;
#X obj 557 568 -~;
#X obj 521 850 clip~ 0 0;
#X obj 242 1006 +~;
#X text 269 1005 re-combine parts above and below 0 to full signal
;
#X obj 483 173 flatgui/knob 32 32 0.5 2 0 1 empty empty output -2 -8
0 8 #fcfcfc #000000 #000000 0.5 1 1 2 3 4;
#X obj 598 320 s \$0outvol;
#X obj 242 1035 *~;
#X obj 315 1045 r \$0outvol;
#X obj 442 377 expr 1 - \\$f1;
#X obj 370 173 flatgui/knob 32 32 1 10 0 1 empty empty threshold -2
-8 0 8 #e3e3e3 #e36a35 #000000 9.71875 1 1 2 3 4;
#X obj 286 367 / 10;
#X obj 423 173 flatgui/knob 32 32 0 1 0 1 empty empty amount -2 -8
0 8 #fcfcfc #000000 #000000 1 1 1 2 3 4;
#X obj 442 406 * 1;
#X obj 524 420 flatgui/knob 24 24 -3 5 0 1 empty empty empty -2 -8
0 8 #fcfcfc #000000 #000000 1 1 1 2 3 4;
#X text 579 742 amout to let signal above clip range through;
#X text 189 742 amout to let signal above clip range through;
#X obj 524 451 t b f;
#X msg 537 391 1;
#X obj 1098 790 outlet~;
#X obj 316 173 flatgui/knob 32 32 0 1 0 1 empty empty base -2 -8 0
8 #fcfcfc #000000 #000000 1 1 1 2 3 4;
#X obj 316 212 s \$0baseAmount;
#X obj 559 882 r \$0baseAmount;
#X obj 163 882 r \$0baseAmount;
#X obj 131 909 *~;
#X obj 521 909 *~;
#X connect 0 0 4 0;
#X connect 3 0 4 1;
#X connect 4 0 13 0;
#X connect 4 0 5 0;
#X connect 4 0 15 0;
#X connect 4 0 38 0;
#X connect 4 0 42 0;
#X connect 4 0 43 0;
#X connect 4 0 2 0;
#X connect 5 0 7 0;
#X connect 7 0 21 0;
#X connect 8 0 9 0;
#X connect 8 0 11 0;
#X connect 9 0 10 0;
#X connect 12 0 5 1;
#X connect 13 0 7 1;
#X connect 14 0 13 1;
#X connect 15 0 65 0;
#X connect 16 0 15 2;
#X connect 17 0 6 2;
#X connect 17 0 2 2;
#X connect 17 0 18 2;
#X connect 17 0 20 2;
#X connect 19 0 44 0;
#X connect 21 0 19 1;
#X connect 21 0 60 0;
#X connect 23 0 21 1;
#X connect 29 0 31 0;
#X connect 30 0 44 1;
#X connect 31 0 30 1;
#X connect 31 0 60 0;
#X connect 32 0 31 1;
#X connect 38 0 29 0;
#X connect 39 0 38 1;
#X connect 40 0 43 1;
#X connect 41 0 42 1;
#X connect 42 0 29 1;
#X connect 43 0 66 0;
#X connect 44 0 48 0;
#X connect 46 0 47 0;
#X connect 48 0 1 0;
#X connect 48 0 20 0;
#X connect 49 0 48 1;
#X connect 50 0 54 0;
#X connect 51 0 52 0;
#X connect 52 0 8 0;
#X connect 53 0 50 0;
#X connect 54 0 22 0;
#X connect 55 0 58 0;
#X connect 58 0 54 0;
#X connect 58 1 54 1;
#X connect 59 0 55 0;
#X connect 61 0 62 0;
#X connect 63 0 66 1;
#X connect 64 0 65 1;
#X connect 65 0 19 0;
#X connect 66 0 30 0;
#X coords 0 -1 1 1 295 64 1 232 145;
