#N canvas 153 174 1410 790 10;
#X obj 614 668 vline~;
#X floatatom 562 490 5 0 0 0 - - -;
#X floatatom 631 430 5 0 0 0 - - -;
#X floatatom 713 490 5 0 0 0 - - -;
#X text 562 471 atck time;
#X text 623 409 sust val;
#X obj 631 449 clip 0 1;
#X text 721 505 sust time;
#X floatatom 580 64 5 0 0 0 - - -;
#X obj 631 563 pack f f f f;
#X obj 579 84 / 127;
#X floatatom 485 418 5 0 0 0 - - -;
#X text 493 380 vol;
#X floatatom 837 447 5 0 0 0 - - -;
#X text 847 462 cutoff time;
#X floatatom 637 500 5 0 0 0 - - -;
#X obj 643 384 hsl 128 15 0 1 0 0 empty empty sustain_value -2 -8 0
10 -262144 -1 -1 0 1;
#X msg 614 589 \$1 \$2 \, \$3 \$4 \$2;
#X floatatom 961 470 5 0 0 0 - - -;
#X text 1067 470 longtail amount;
#X floatatom 1061 490 5 0 0 0 - - -;
#X text 1097 490 longtail time;
#X obj 823 623 pack f f f;
#X msg 761 651 \$1 \$2 \, 0 \$3 \$2;
#X obj 894 528 clip 0 1;
#X obj 823 599 f;
#X obj 822 494 t b f;
#X obj 961 299 vsl 15 128 0 0.5 0 0 empty empty longtail_amount 0 -9
0 10 -262144 -1 -1 0 1;
#X obj 879 582 *;
#X obj 894 554 t b f;
#X obj 1077 336 vsl 15 128 0 2000 0 0 empty empty longtail_time 0 -9
0 10 -262144 -1 -1 0 1;
#X obj 822 471 f;
#X text 337 116 attack time;
#X text 1284 276 sust value;
#X text 1284 286 sust time;
#X text 1284 296 cutoff time;
#X text 1284 306 longtail amount;
#X text 1284 316 longtail time;
#X obj 702 38 inlet;
#X obj 802 38 inlet;
#X obj 802 60 s \$0-sustvalue;
#X obj 894 38 inlet;
#X obj 894 60 s \$0-susttime;
#X obj 992 38 inlet;
#X obj 1092 38 inlet;
#X obj 1216 38 inlet;
#X obj 992 60 s \$0-cutofftime;
#X obj 1092 60 s \$0-longtailamount;
#X text 814 79 values 0-1;
#X text 1112 82 values 0-1;
#X obj 1216 60 s \$0-longtailtime;
#X obj 17 26 r \$0-attacktime;
#X obj 17 75 s \$0-attacktime;
#X floatatom 304 113 5 0 0 0 - - -;
#X floatatom 304 131 5 0 0 0 - - -;
#X text 337 134 sust value;
#X obj 17 119 r \$0-sustvalue;
#X obj 17 168 s \$0-sustvalue;
#X obj 17 209 r \$0-susttime;
#X obj 17 258 s \$0-susttime;
#X floatatom 304 149 5 0 0 0 - - -;
#X text 337 152 sust time;
#X obj 17 302 r \$0-cutofftime;
#X obj 17 351 s \$0-cutofftime;
#X floatatom 304 167 5 0 0 0 - - -;
#X text 337 170 cutoff time;
#X obj 17 392 r \$0-longtailamount;
#X obj 17 441 s \$0-longtailamount;
#X floatatom 304 185 5 0 0 0 - - -;
#X text 337 188 longtail amnt;
#X obj 17 482 r \$0-longtailtime;
#X obj 17 531 s \$0-longtailtime;
#X floatatom 304 203 5 0 0 0 - - -;
#X text 337 206 longtail time;
#X obj 592 283 r \$0-attacktime;
#X obj 580 38 inlet;
#X text 522 22 volume in 0-127;
#X obj 510 58 inlet;
#X text 462 42 volume in 0-1;
#X obj 485 397 clip 0 1;
#X obj 635 324 r \$0-sustvalue;
#X obj 740 335 r \$0-susttime;
#X obj 818 371 r \$0-cutofftime;
#X obj 951 242 r \$0-longtailamount;
#X obj 1069 303 r \$0-longtailtime;
#X obj 612 751 outlet~;
#X obj 639 37 inlet;
#X text 636 21 noteoff;
#X obj 639 60 t b;
#X obj 17 416 p_getsetC 0 1;
#X obj 17 50 p_getset+;
#X obj 17 143 p_getsetC 0 1;
#X obj 17 233 p_getset+;
#X obj 17 326 p_getset+;
#X obj 17 506 p_getset+;
#X obj 625 477 *;
#X obj 485 438 t f f;
#X obj 702 60 s \$0-attacktime;
#X connect 0 0 85 0;
#X connect 1 0 9 1;
#X connect 2 0 6 0;
#X connect 3 0 9 3;
#X connect 6 0 95 1;
#X connect 8 0 10 0;
#X connect 9 0 17 0;
#X connect 10 0 79 0;
#X connect 11 0 96 0;
#X connect 13 0 31 1;
#X connect 15 0 9 2;
#X connect 15 0 28 0;
#X connect 16 0 2 0;
#X connect 17 0 0 0;
#X connect 18 0 24 0;
#X connect 20 0 22 2;
#X connect 22 0 23 0;
#X connect 23 0 0 0;
#X connect 24 0 29 0;
#X connect 25 0 22 0;
#X connect 26 0 25 0;
#X connect 26 1 22 1;
#X connect 27 0 18 0;
#X connect 28 0 25 1;
#X connect 29 0 28 0;
#X connect 29 1 28 1;
#X connect 30 0 20 0;
#X connect 31 0 26 0;
#X connect 38 0 97 0;
#X connect 39 0 40 0;
#X connect 41 0 42 0;
#X connect 43 0 46 0;
#X connect 44 0 47 0;
#X connect 45 0 50 0;
#X connect 51 0 90 0;
#X connect 53 0 90 1;
#X connect 54 0 91 1;
#X connect 56 0 91 0;
#X connect 58 0 92 0;
#X connect 60 0 92 1;
#X connect 62 0 93 0;
#X connect 64 0 93 1;
#X connect 66 0 89 0;
#X connect 68 0 89 1;
#X connect 70 0 94 0;
#X connect 72 0 94 1;
#X connect 74 0 1 0;
#X connect 75 0 8 0;
#X connect 77 0 79 0;
#X connect 79 0 11 0;
#X connect 80 0 2 0;
#X connect 81 0 3 0;
#X connect 82 0 13 0;
#X connect 83 0 18 0;
#X connect 84 0 20 0;
#X connect 86 0 88 0;
#X connect 88 0 31 0;
#X connect 89 0 67 0;
#X connect 89 1 68 0;
#X connect 90 0 52 0;
#X connect 90 1 53 0;
#X connect 91 0 57 0;
#X connect 91 1 54 0;
#X connect 92 0 59 0;
#X connect 92 1 60 0;
#X connect 93 0 63 0;
#X connect 93 1 64 0;
#X connect 94 0 71 0;
#X connect 94 1 72 0;
#X connect 95 0 15 0;
#X connect 96 0 9 0;
#X connect 96 1 95 0;
#X coords 0 -1 1 1 120 124 1 300 100;
