#N canvas -1395 -1055 1832 985 10;
#X obj 614 668 vline~;
#X floatatom 562 490 5 0 0 0 - - - 0 0 1, f 5;
#X floatatom 631 430 5 0 0 0 - - - 0 0 1, f 5;
#X floatatom 713 490 5 0 0 0 - - - 0 0 1, f 5;
#X text 562 471 atck time;
#X text 623 409 sust val;
#X obj 631 449 clip 0 1;
#X text 721 505 sust time;
#X floatatom 580 64 5 0 0 0 - - - 0 0 1, f 5;
#X obj 631 563 pack f f f f;
#X obj 579 84 / 127;
#X floatatom 485 418 5 0 0 0 - - - 0 0 1, f 5;
#X text 493 380 vol;
#X floatatom 837 447 5 0 0 0 - - - 0 0 1, f 5;
#X text 847 462 cutoff time;
#X floatatom 637 500 5 0 0 0 - - - 0 0 1, f 5;
#X obj 643 384 hsl 128 15 0 1 0 0 empty empty sustain_value -2 -8 0
10 #fcfcfc #000000 #000000 0 1 0 1;
#X msg 614 589 \$1 \$2 \, \$3 \$4 \$2;
#X floatatom 961 470 5 0 0 0 - - - 0 0 1, f 5;
#X text 1067 470 longtail amount;
#X floatatom 1061 490 5 0 0 0 - - - 0 0 1, f 5;
#X text 1097 490 longtail time;
#X obj 823 623 pack f f f;
#X msg 761 651 \$1 \$2 \, 0 \$3 \$2;
#X obj 894 528 clip 0 1;
#X obj 823 599 f;
#X obj 822 494 t b f;
#X obj 961 299 vsl 15 128 0 0.5 0 0 empty empty longtail_amount 0 -9
0 10 #fcfcfc #000000 #000000 0 1 0 1;
#X obj 879 582 *;
#X obj 894 554 t b f;
#X obj 1077 336 vsl 15 128 0 2000 0 0 empty empty longtail_time 0 -9
0 10 #fcfcfc #000000 #000000 0 1 0 1;
#X obj 822 471 f;
#X text 337 116 attack time;
#X text 1284 276 sust value;
#X text 1284 286 sust time;
#X text 1284 296 cutoff time;
#X text 1284 306 longtail amount;
#X text 1284 316 longtail time;
#X obj 702 38 inlet;
#X obj 802 38 inlet;
#X obj 802 60 s \$0-sustvalue;
#X obj 894 38 inlet;
#X obj 894 60 s \$0-susttime;
#X obj 992 38 inlet;
#X obj 1092 38 inlet;
#X obj 1216 38 inlet;
#X obj 992 60 s \$0-cutofftime;
#X obj 1092 60 s \$0-longtailamount;
#X text 814 79 values 0-1;
#X text 1112 82 values 0-1;
#X obj 1216 60 s \$0-longtailtime;
#X obj 17 26 r \$0-attacktime;
#X obj 17 75 s \$0-attacktime;
#X floatatom 304 113 5 0 0 0 - - - 0 0 1, f 5;
#X floatatom 304 131 5 0 0 0 - - - 0 0 1, f 5;
#X text 337 134 sust value;
#X obj 17 119 r \$0-sustvalue;
#X obj 17 168 s \$0-sustvalue;
#X obj 17 209 r \$0-susttime;
#X obj 17 258 s \$0-susttime;
#X floatatom 304 149 5 0 0 0 - - - 0 0 1, f 5;
#X text 337 152 sust time;
#X obj 17 302 r \$0-cutofftime;
#X obj 17 351 s \$0-cutofftime;
#X floatatom 304 167 5 0 0 0 - - - 0 0 1, f 5;
#X text 337 170 cutoff time;
#X obj 17 392 r \$0-longtailamount;
#X obj 17 441 s \$0-longtailamount;
#X floatatom 304 185 5 0 0 0 - - - 0 0 1, f 5;
#X text 337 188 longtail amnt;
#X obj 17 482 r \$0-longtailtime;
#X obj 17 531 s \$0-longtailtime;
#X floatatom 304 203 5 0 0 0 - - - 0 0 1, f 5;
#X text 337 206 longtail time;
#X obj 592 283 r \$0-attacktime;
#X obj 580 38 inlet;
#X text 522 22 volume in 0-127;
#X obj 510 58 inlet;
#X text 462 42 volume in 0-1;
#X obj 485 397 clip 0 1;
#X obj 635 324 r \$0-sustvalue;
#X obj 740 335 r \$0-susttime;
#X obj 818 371 r \$0-cutofftime;
#X obj 951 242 r \$0-longtailamount;
#X obj 1069 303 r \$0-longtailtime;
#X obj 612 751 outlet~;
#X obj 639 37 inlet;
#X text 636 21 noteoff;
#X obj 639 60 t b;
#X obj 17 416 p_getsetC 0 1;
#X obj 17 50 p_getset+;
#X obj 17 143 p_getsetC 0 1;
#X obj 17 233 p_getset+;
#X obj 17 326 p_getset+;
#X obj 17 506 p_getset+;
#X obj 625 477 *;
#X obj 485 438 t f f;
#X obj 702 60 s \$0-attacktime;
#X obj 1618 891 outlet;
#X msg 1396 895 95 3 1 1 70 28.6614;
#X floatatom 1322 747 5 0 0 0 - - - 0 0 1, f 5;
#X floatatom 1362 747 5 0 0 0 - - - 0 0 1, f 5;
#X floatatom 1402 747 5 0 0 0 - - - 0 0 1, f 5;
#X floatatom 1442 747 5 0 0 0 - - - 0 0 1, f 5;
#X msg 1239 747 set;
#X floatatom 1482 747 5 0 0 0 - - - 0 0 1, f 5;
#X text 1136 649 saving values:;
#X obj 1525 52 inlet;
#X obj 1374 523 f;
#X obj 1404 523 f;
#X obj 1434 523 f;
#X obj 1464 523 f;
#X obj 1494 523 f;
#X floatatom 1374 548 5 0 0 0 - - - 0 0 1, f 5;
#X floatatom 1404 548 5 0 0 0 - - - 0 0 1, f 5;
#X floatatom 1434 548 5 0 0 0 - - - 0 0 1, f 5;
#X floatatom 1494 548 5 0 0 0 - - - 0 0 1, f 5;
#X floatatom 1464 548 5 0 0 0 - - - 0 0 1, f 5;
#X obj 1355 491 bng 15 250 50 0 empty empty empty 17 7 0 10 #fcfcfc
#000000 #000000 1;
#X obj 1311 465 t b b;
#X obj 1311 443 loadbang;
#X text 1133 556 loading values:;
#X obj 1430 480 unpack f f f f f f;
#X obj 1524 523 f;
#X floatatom 1524 548 5 0 0 0 - - - 0 0 1, f 5;
#X floatatom 1522 747 5 0 0 0 - - - 0 0 1, f 5;
#X obj 1338 806 pack s f f f f f f;
#X msg 1338 832 \$1 \$2 \$3 \$4 \$5 \$6 \$7;
#X obj 1596 202 print LOADING;
#X obj 1040 675 r \$0-attacktime-save;
#X obj 1040 599 s \$0-attacktime-load;
#X obj 1170 599 s \$0-sustvalue-load;
#X obj 1174 675 r \$0-sustvalue-save;
#X obj 1293 599 s \$0-susttime-load;
#X obj 1293 675 r \$0-susttime-save;
#X obj 1410 599 s \$0-cutofftime-load;
#X obj 1410 675 r \$0-cutofftime-save;
#X obj 1541 599 s \$0-longtailamount-load;
#X obj 1541 675 r \$0-longtailamount-save;
#X obj 1700 599 s \$0-longtailtime-load;
#X obj 1700 675 r \$0-longtailtime-save;
#X obj 117 26 r \$0-attacktime-load;
#X obj 117 75 s \$0-attacktime-save;
#X obj 117 119 r \$0-sustvalue-load;
#X obj 117 168 s \$0-sustvalue-save;
#X obj 117 209 r \$0-susttime-load;
#X obj 117 258 s \$0-susttime-save;
#X obj 117 302 r \$0-cutofftime-load;
#X obj 117 351 s \$0-cutofftime-save;
#X obj 147 392 r \$0-longtailamount-load;
#X obj 147 441 s \$0-longtailamount-save;
#X obj 147 482 r \$0-longtailtime-load;
#X obj 147 531 s \$0-longtailtime-save;
#X connect 0 0 85 0;
#X connect 1 0 9 1;
#X connect 2 0 6 0;
#X connect 3 0 9 3;
#X connect 6 0 95 1;
#X connect 8 0 10 0;
#X connect 9 0 17 0;
#X connect 10 0 79 0;
#X connect 11 0 96 0;
#X connect 13 0 31 1;
#X connect 15 0 9 2;
#X connect 15 0 28 0;
#X connect 16 0 2 0;
#X connect 17 0 0 0;
#X connect 18 0 24 0;
#X connect 20 0 22 2;
#X connect 22 0 23 0;
#X connect 23 0 0 0;
#X connect 24 0 29 0;
#X connect 25 0 22 0;
#X connect 26 0 25 0;
#X connect 26 1 22 1;
#X connect 27 0 18 0;
#X connect 28 0 25 1;
#X connect 29 0 28 0;
#X connect 29 1 28 1;
#X connect 30 0 20 0;
#X connect 31 0 26 0;
#X connect 38 0 97 0;
#X connect 39 0 40 0;
#X connect 41 0 42 0;
#X connect 43 0 46 0;
#X connect 44 0 47 0;
#X connect 45 0 50 0;
#X connect 51 0 90 0;
#X connect 53 0 90 1;
#X connect 54 0 91 1;
#X connect 56 0 91 0;
#X connect 58 0 92 0;
#X connect 60 0 92 1;
#X connect 62 0 93 0;
#X connect 64 0 93 1;
#X connect 66 0 89 0;
#X connect 68 0 89 1;
#X connect 70 0 94 0;
#X connect 72 0 94 1;
#X connect 74 0 1 0;
#X connect 75 0 8 0;
#X connect 77 0 79 0;
#X connect 79 0 11 0;
#X connect 80 0 2 0;
#X connect 81 0 3 0;
#X connect 82 0 13 0;
#X connect 83 0 18 0;
#X connect 84 0 20 0;
#X connect 86 0 88 0;
#X connect 88 0 31 0;
#X connect 89 0 67 0;
#X connect 89 0 150 0;
#X connect 89 1 68 0;
#X connect 90 0 52 0;
#X connect 90 0 142 0;
#X connect 90 1 53 0;
#X connect 91 0 57 0;
#X connect 91 0 144 0;
#X connect 91 1 54 0;
#X connect 92 0 59 0;
#X connect 92 0 146 0;
#X connect 92 1 60 0;
#X connect 93 0 63 0;
#X connect 93 0 148 0;
#X connect 93 1 64 0;
#X connect 94 0 71 0;
#X connect 94 0 152 0;
#X connect 94 1 72 0;
#X connect 95 0 15 0;
#X connect 96 0 9 0;
#X connect 96 1 95 0;
#X connect 100 0 126 1;
#X connect 101 0 126 2;
#X connect 102 0 126 3;
#X connect 103 0 126 4;
#X connect 104 0 126 0;
#X connect 105 0 126 5;
#X connect 107 0 122 0;
#X connect 107 0 128 0;
#X connect 108 0 113 0;
#X connect 109 0 114 0;
#X connect 110 0 115 0;
#X connect 111 0 117 0;
#X connect 112 0 116 0;
#X connect 113 0 129 0;
#X connect 113 0 130 0;
#X connect 114 0 131 0;
#X connect 114 0 132 0;
#X connect 115 0 133 0;
#X connect 115 0 134 0;
#X connect 116 0 137 0;
#X connect 116 0 138 0;
#X connect 117 0 135 0;
#X connect 117 0 136 0;
#X connect 118 0 108 0;
#X connect 118 0 109 0;
#X connect 118 0 110 0;
#X connect 118 0 111 0;
#X connect 118 0 112 0;
#X connect 118 0 123 0;
#X connect 119 0 118 0;
#X connect 119 1 98 0;
#X connect 120 0 119 0;
#X connect 122 0 108 1;
#X connect 122 1 109 1;
#X connect 122 2 110 1;
#X connect 122 3 111 1;
#X connect 122 4 112 1;
#X connect 122 5 123 1;
#X connect 123 0 124 0;
#X connect 124 0 139 0;
#X connect 124 0 140 0;
#X connect 125 0 126 6;
#X connect 126 0 127 0;
#X connect 127 0 99 0;
#X connect 127 0 98 0;
#X connect 129 0 100 0;
#X connect 129 0 104 0;
#X connect 132 0 101 0;
#X connect 132 0 104 0;
#X connect 134 0 102 0;
#X connect 134 0 104 0;
#X connect 136 0 103 0;
#X connect 136 0 104 0;
#X connect 138 0 105 0;
#X connect 138 0 104 0;
#X connect 140 0 125 0;
#X connect 140 0 104 0;
#X connect 141 0 90 0;
#X connect 143 0 91 0;
#X connect 145 0 92 0;
#X connect 147 0 93 0;
#X connect 149 0 89 0;
#X connect 151 0 94 0;
#X coords 0 -1 1 1 133 124 1 300 100;
