#N canvas 755 111 847 743 10;
#X obj 594 299 soundfiler;
#X obj 119 355 bng 15 250 50 0 empty empty empty 17 7 0 10 -262144
-1 -1;
#X obj 155 406 spigot;
#N canvas 0 22 450 300 (subpatch) 0;
#X array \$0-array 303188 float 2;
#X coords 0 1 303188 -1 200 140 1;
#X restore 560 13 graph;
#X obj 86 389 tabplay~;
#X msg 26 354 set \$2-array;
#X obj 26 300 bng 15 250 50 0 empty empty empty 17 7 0 10 -262144 -1
-1;
#X obj 26 331 pack 0 \$0;
#X obj 325 237 ctlin;
#X obj 86 628 *~;
#X obj 328 535 log;
#X obj 328 511 expr (( 127 - $f1 ) / 127);
#X obj 328 559 * -1;
#X obj 328 611 clip 0 1;
#X text -14 161 ------------------------------------------------------------
;
#X obj 14 32 bng 15 250 50 0 empty empty empty 17 7 0 10 -4034 -260097
-159808;
#X obj 15 51 tgl 15 0 empty empty empty 17 7 0 10 -204786 -13381 -1
1 1;
#X symbolatom 87 11 20 0 0 0 - - -;
#X text 33 29 play;
#X text 33 49 loop;
#X obj 151 30 tgl 15 0 empty empty empty 17 7 0 10 -262144 -13381 -258113
1 1;
#X obj 171 30 tgl 15 0 empty empty empty 17 7 0 10 -262144 -260097
-1 0 1;
#X obj 191 30 tgl 15 0 empty empty empty 17 7 0 10 -262144 -258113
-1 0 1;
#X obj 120 660 env~ 200;
#X obj 252 35 > 40;
#X obj 283 35 > 60;
#X obj 314 35 > 80;
#X obj 188 386 tgl 15 0 empty empty empty 17 7 0 10 -262144 -1 -1 1
1;
#X text 314 482 midiCC to logarithmic volume scale;
#X obj 305 434 spigot;
#X obj 338 367 tgl 15 0 empty empty empty 17 7 0 10 -262144 -1 -1 0
1;
#X obj 427 381 tgl 15 0 empty empty empty 17 7 0 10 -262144 -1 -1 0
1;
#X obj 338 344 ==;
#X obj 427 357 ==;
#X floatatom 104 31 5 0 0 0 - - -;
#X floatatom 104 51 5 0 0 0 - - -;
#X obj 325 396 spigot;
#X floatatom 305 462 5 0 0 0 - - -;
#X text 79 30 nte;
#X text 78 50 chn;
#X obj 154 51 hsl 50 15 0.01 1 1 0 empty empty empty -2 -8 0 10 -262144
-258113 -4034 4900 1;
#X floatatom 393 659 20 0 0 0 - - -;
#X obj 328 584 expr (($f1 + 0.00790518) / 4.85209) - 0.00162923;
#X symbolatom 594 220 10 0 0 0 - - -;
#X obj 594 244 pack s \$0;
#X msg 594 267 read -resize \$1 \$2-array;
#X floatatom 492 393 5 0 0 0 - - -;
#X floatatom 378 353 5 0 0 0 - - -;
#X obj 128 94 s \$0note;
#X obj 127 118 s \$0chanel;
#X obj 255 93 r \$0vol;
#X obj 353 314 r \$0note;
#X obj 442 328 r \$0chanel;
#X obj 13 115 s \$0playBang;
#X obj 16 138 s \$0loopToggle;
#X obj 109 143 s \$0filename;
#X obj 251 8 r \$0env;
#X obj 189 367 r \$0loopToggle;
#X obj 120 680 s \$0env;
#X obj 291 648 s \$0vol;
#X obj 594 195 r \$0filename;
#X obj 119 330 r \$0playBang;
#X obj 70 239 delay 1000;
#X obj 97 208 t b;
#X msg 99 293 stop;
#X obj 191 521 < 0.0015;
#X obj 215 548 tgl 15 0 empty empty empty 17 7 0 10 -262144 -1 -1 0
1;
#X obj 189 580 change;
#X obj 87 -10 openpanel;
#X obj 71 11 bng 15 250 50 0 empty empty empty 17 7 0 10 -262144 -1
-1;
#X obj 290 184 print OPN;
#X obj 61 659 outlet~;
#X connect 1 0 4 0;
#X connect 2 0 1 0;
#X connect 4 0 9 0;
#X connect 4 1 2 0;
#X connect 5 0 4 0;
#X connect 6 0 7 0;
#X connect 7 0 5 0;
#X connect 8 0 36 0;
#X connect 8 1 32 0;
#X connect 8 2 33 0;
#X connect 9 0 23 0;
#X connect 9 0 71 0;
#X connect 10 0 12 0;
#X connect 11 0 10 0;
#X connect 12 0 42 0;
#X connect 13 0 9 1;
#X connect 13 0 41 0;
#X connect 13 0 59 0;
#X connect 13 0 65 0;
#X connect 15 0 53 0;
#X connect 16 0 54 0;
#X connect 17 0 55 0;
#X connect 17 0 63 0;
#X connect 17 0 70 0;
#X connect 23 0 58 0;
#X connect 24 0 20 0;
#X connect 25 0 21 0;
#X connect 26 0 22 0;
#X connect 27 0 2 1;
#X connect 29 0 37 0;
#X connect 30 0 29 1;
#X connect 31 0 36 1;
#X connect 32 0 30 0;
#X connect 33 0 31 0;
#X connect 34 0 48 0;
#X connect 35 0 49 0;
#X connect 36 0 29 0;
#X connect 37 0 11 0;
#X connect 42 0 13 0;
#X connect 43 0 44 0;
#X connect 44 0 45 0;
#X connect 45 0 0 0;
#X connect 50 0 40 0;
#X connect 51 0 32 1;
#X connect 51 0 47 0;
#X connect 52 0 33 1;
#X connect 52 0 46 0;
#X connect 56 0 24 0;
#X connect 56 0 25 0;
#X connect 56 0 26 0;
#X connect 57 0 27 0;
#X connect 60 0 43 0;
#X connect 61 0 1 0;
#X connect 62 0 6 0;
#X connect 63 0 62 0;
#X connect 64 0 4 0;
#X connect 65 0 66 0;
#X connect 66 0 67 0;
#X connect 67 0 4 0;
#X connect 68 0 17 0;
#X connect 69 0 68 0;
#X coords 0 -1 1 1 200 60 1 10 10;
