#N canvas 1086 325 578 598 10;
#X obj 32 27 inlet;
#X obj 433 25 inlet;
#X obj 30 549 outlet;
#X obj 497 547 outlet;
#X obj 140 330 change;
#X text 141 23 allows a numberbox to be set externally or;
#X text 141 38 set by clicking it \, while listening/sending;
#X text 141 53 on the same bus;
#X text 297 193 getter for numberbox;
#X text 352 409 setter for numberbox;
#X text 57 141 bus IN;
#X text 32 482 bus OUT;
#X obj 140 403 clip \$1 \$2;
#X obj 140 204 clip \$1 \$2;
#X text 141 82 - p_getset+ only allows positive numbers through;
#X text 141 102 - p_getsetC clips values between creationArguments
\$1 for min and \$2 for max;
#X connect 0 0 13 0;
#X connect 1 0 4 0;
#X connect 4 0 12 0;
#X connect 12 0 2 0;
#X connect 13 0 4 0;
#X connect 13 0 3 0;
