#N canvas 733 93 578 598 10;
#X obj 32 27 inlet;
#X obj 433 25 inlet;
#X obj 30 549 outlet;
#X obj 497 547 outlet;
#X obj 101 322 change;
#X text 141 27 allows a numberbox to be set externally or;
#X text 141 42 set by clicking it \, while listening/sending;
#X text 277 173 getter for numberbox;
#X text 346 427 setter for numberbox;
#X text 31 6 bus IN;
#X text 25 565 bus OUT;
#X obj 64 179 spigot;
#X obj 97 150 >= 0;
#X msg 113 201 0;
#X floatatom 64 232 5 0 0 0 - - -;
#X obj 64 128 t f f;
#X obj 113 179 select 0;
#X obj 52 434 spigot;
#X obj 85 405 >= 0;
#X msg 101 456 0;
#X floatatom 52 487 5 0 0 0 - - -;
#X obj 52 383 t f f;
#X obj 101 434 select 0;
#X text 141 57 on the same bus;
#X text 139 82 - p_getset+ only allows positive numbers through;
#X text 139 102 - p_getsetC clips values between creationArguments
\$1 for min and \$2 for max;
#X connect 0 0 15 0;
#X connect 1 0 4 0;
#X connect 4 0 21 0;
#X connect 11 0 14 0;
#X connect 12 0 11 1;
#X connect 12 0 16 0;
#X connect 13 0 14 0;
#X connect 14 0 4 0;
#X connect 14 0 3 0;
#X connect 15 0 11 0;
#X connect 15 1 12 0;
#X connect 16 0 13 0;
#X connect 17 0 20 0;
#X connect 18 0 17 1;
#X connect 18 0 22 0;
#X connect 19 0 20 0;
#X connect 20 0 2 0;
#X connect 21 0 17 0;
#X connect 21 1 18 0;
#X connect 22 0 19 0;
