#N canvas 373 160 972 747 12;
#X obj 273 79 inlet~;
#X obj 273 607 outlet~;
#X obj 283 297 expr~ sin((1/log($v1)));
#X obj 523 147 >~ 0;
#X obj 283 147 <~ 0;
#X obj 523 297 expr~ sin((1/log($v1)));
#X obj 283 256 *~ -1;
#X obj 283 326 *~ -1;
#X obj 523 176 *~;
#X obj 283 176 *~;
#X connect 0 0 3 0;
#X connect 0 0 4 0;
#X connect 0 0 9 1;
#X connect 0 0 8 1;
#X connect 2 0 7 0;
#X connect 3 0 8 0;
#X connect 4 0 9 0;
#X connect 5 0 1 0;
#X connect 6 0 2 0;
#X connect 7 0 1 0;
#X connect 8 0 5 0;
#X connect 9 0 6 0;
