#N canvas 220 188 990 715 10;
#X obj 732 195 f;
#X obj 760 195 + 1;
#X obj 732 217 % 2;
#X obj 732 241 tgl 15 0 \$0inc empty increment_state 17 7 0 10 -262144
-1 -1 0 1;
#X obj 731 167 bng 15 250 50 0 empty empty empty 17 7 0 10 -262144
-1 -1;
#X obj 751 568 >;
#X floatatom 856 509 5 0 0 0 max_value - -;
#X msg 791 611 0;
#X obj 822 612 bng 15 250 50 0 empty empty empty 17 7 0 10 -262144
-1 -1;
#X obj 778 569 select 1;
#X obj 732 285 metro 100;
#X obj 846 569 f;
#X obj 426 19 inlet;
#X obj 422 413 f;
#X obj 448 413 - 1;
#X msg 856 453 127;
#X obj 856 426 loadbang;
#X text 549 2 min;
#X text 599 2 max;
#X text 645 2 deltatime;
#X text 508 2 val;
#X msg 783 137 100;
#X obj 783 111 loadbang;
#X floatatom 783 165 5 0 0 0 - - -;
#X floatatom 645 41 5 0 0 0 - - -;
#X floatatom 596 41 5 0 0 0 - - -;
#X floatatom 546 41 5 0 0 0 - - -;
#X floatatom 506 41 5 0 0 0 - - -;
#X obj 426 55 bng 15 250 50 0 empty empty empty 17 7 0 10 -262144 -1
-1;
#X text 465 2 +bang;
#X obj 466 19 inlet;
#X obj 506 19 inlet;
#X obj 546 19 inlet;
#X obj 596 19 inlet;
#X obj 645 19 inlet;
#X text 423 2 -bang;
#X obj 466 55 bng 15 250 50 0 empty empty empty 17 7 0 10 -262144 -1
-1;
#X obj 506 477 f;
#X obj 468 373 t b b;
#X floatatom 506 577 5 0 0 0 - - -;
#X obj 563 413 f;
#X obj 589 413 + 1;
#X obj 530 373 t b b;
#X text 407 372 decrement;
#X text 568 373 increment;
#X obj 530 349 bng 15 250 50 0 empty empty empty 17 7 0 10 -262144
-1 -1;
#X obj 468 349 bng 15 250 50 0 empty empty empty 17 7 0 10 -262144
-1 -1;
#X obj 885 451 r \$0max;
#X obj 596 61 s \$0max;
#X obj 645 82 s \$0delta;
#X obj 819 137 r \$0delta;
#X floatatom 234 499 5 0 127 0 min_value - -;
#X msg 169 601 0;
#X obj 200 602 bng 15 250 50 0 empty empty empty 17 7 0 10 -262144
-1 -1;
#X obj 156 559 select 1;
#X obj 224 559 f;
#X obj 234 415 loadbang;
#X obj 263 443 r \$0min;
#X obj 129 558 <;
#X msg 234 444 0;
#X obj 546 61 s \$0min;
#X obj 856 485 clip 0 127;
#X obj 234 473 clip 0 127;
#X obj 256 193 f;
#X obj 284 193 + 1;
#X obj 256 215 % 2;
#X obj 256 239 tgl 15 0 \$0dec empty decrement_state 17 7 0 10 -262144
-1 -1 0 1;
#X obj 255 165 bng 15 250 50 0 empty empty empty 17 7 0 10 -262144
-1 -1;
#X obj 256 286 metro 100;
#X msg 307 138 100;
#X obj 307 112 loadbang;
#X floatatom 307 166 5 0 0 0 - - -;
#X obj 339 138 r \$0delta;
#X obj 645 61 clip 10 10000;
#X msg 337 283 0;
#X msg 685 283 0;
#X obj 337 260 select 1;
#X obj 685 264 select 1;
#X obj 74 220 hsl 78 14 0 127 0 0 empty empty empty -2 -8 0 10 -262144
-1 -1 3638 1;
#X obj 71 203 cnv 15 83 18 empty \$0uplabel empty 20 12 0 14 -233017
-262144 0;
#X obj 71 233 cnv 15 83 18 empty \$0downlabel empty 20 12 0 14 -233017
-262144 0;
#N canvas 217 274 306 213 gui 0;
#X obj -62 15 r \$0dec;
#X obj -62 81 f;
#X obj -34 81 + 1;
#X obj -62 103 % 2;
#X obj -62 125 select 0;
#X msg -62 147 color 13;
#X msg -4 147 color 10;
#X obj -64 171 s \$0downlabel;
#X obj -32 37 select 1 0;
#X obj -62 58 metro 100;
#X obj 71 81 f;
#X obj 99 81 + 1;
#X obj 71 103 % 2;
#X obj 71 125 select 0;
#X msg 129 147 color 10;
#X obj 101 37 select 1 0;
#X obj 71 58 metro 100;
#X msg 71 147 color 16;
#X obj 69 171 s \$0uplabel;
#X obj 71 15 r \$0inc;
#X connect 0 0 8 0;
#X connect 0 0 9 0;
#X connect 1 0 2 0;
#X connect 1 0 3 0;
#X connect 2 0 1 1;
#X connect 3 0 4 0;
#X connect 4 0 5 0;
#X connect 4 1 6 0;
#X connect 5 0 7 0;
#X connect 6 0 7 0;
#X connect 8 1 6 0;
#X connect 9 0 1 0;
#X connect 10 0 11 0;
#X connect 10 0 12 0;
#X connect 11 0 10 1;
#X connect 12 0 13 0;
#X connect 13 0 17 0;
#X connect 13 1 14 0;
#X connect 14 0 18 0;
#X connect 15 1 14 0;
#X connect 16 0 10 0;
#X connect 17 0 18 0;
#X connect 19 0 15 0;
#X connect 19 0 16 0;
#X restore 71 168 pd gui;
#X obj 753 19 inlet;
#X floatatom 753 41 5 0 0 0 - - -;
#X obj 506 661 ctlout;
#X obj 803 19 inlet;
#X floatatom 803 41 5 0 0 0 - - -;
#X text 750 2 ctrl nr;
#X text 800 2 chnl nr;
#X obj 753 62 s \$0ctrlnr;
#X obj 803 83 s \$0chnlnr;
#X obj 522 620 r \$0ctrlnr;
#X obj 539 640 r \$0chnlnr;
#N canvas 899 678 356 352 midireceive 1;
#X obj 57 211 outlet;
#X obj 50 23 ctlin;
#X obj 96 31 r \$0ctrlnr;
#X obj 110 94 r \$0chnlnr;
#X obj 30 93 spigot;
#X obj 63 54 select;
#X obj 77 117 select;
#X obj 44 158 spigot;
#X msg 63 74 1;
#X msg 77 137 1;
#X floatatom 255 79 5 0 0 0 - - -;
#X floatatom 198 142 5 0 0 0 - - -;
#X floatatom 220 80 5 0 0 0 - - -;
#X floatatom 159 141 5 0 0 0 - - -;
#X floatatom 145 244 5 0 0 0 - - -;
#X obj 130 244 bng 15 250 50 0 empty empty empty 17 7 0 10 -262144
-1 -1;
#X msg 96 75 0;
#X msg 119 145 0;
#X connect 1 0 4 0;
#X connect 1 1 5 0;
#X connect 1 1 12 0;
#X connect 1 2 6 0;
#X connect 1 2 13 0;
#X connect 2 0 5 1;
#X connect 2 0 10 0;
#X connect 3 0 6 1;
#X connect 3 0 11 0;
#X connect 4 0 7 0;
#X connect 5 0 8 0;
#X connect 5 1 16 0;
#X connect 6 0 9 0;
#X connect 6 1 17 0;
#X connect 7 0 0 0;
#X connect 7 0 14 0;
#X connect 8 0 4 1;
#X connect 9 0 7 1;
#X connect 14 0 15 0;
#X connect 16 0 4 1;
#X connect 17 0 7 1;
#X restore 506 183 pd midireceive;
#X floatatom 506 204 5 0 0 0 - - -;
#X connect 0 0 1 0;
#X connect 0 0 2 0;
#X connect 1 0 0 1;
#X connect 2 0 3 0;
#X connect 3 0 10 0;
#X connect 3 0 77 0;
#X connect 4 0 0 0;
#X connect 5 0 9 0;
#X connect 6 0 5 1;
#X connect 6 0 11 1;
#X connect 7 0 0 0;
#X connect 8 0 11 0;
#X connect 9 0 7 0;
#X connect 9 0 8 0;
#X connect 10 0 45 0;
#X connect 11 0 37 0;
#X connect 12 0 28 0;
#X connect 13 0 14 0;
#X connect 14 0 37 1;
#X connect 15 0 61 0;
#X connect 16 0 15 0;
#X connect 21 0 23 0;
#X connect 22 0 21 0;
#X connect 22 0 4 0;
#X connect 23 0 10 1;
#X connect 24 0 73 0;
#X connect 25 0 48 0;
#X connect 26 0 60 0;
#X connect 27 0 37 0;
#X connect 28 0 67 0;
#X connect 30 0 36 0;
#X connect 31 0 27 0;
#X connect 32 0 26 0;
#X connect 33 0 25 0;
#X connect 34 0 24 0;
#X connect 36 0 4 0;
#X connect 37 0 13 1;
#X connect 37 0 39 0;
#X connect 37 0 40 1;
#X connect 37 0 5 0;
#X connect 37 0 58 0;
#X connect 38 0 37 0;
#X connect 38 1 13 0;
#X connect 39 0 84 0;
#X connect 40 0 41 0;
#X connect 41 0 37 1;
#X connect 42 0 37 0;
#X connect 42 1 40 0;
#X connect 45 0 42 0;
#X connect 46 0 38 0;
#X connect 47 0 61 0;
#X connect 50 0 23 0;
#X connect 51 0 55 1;
#X connect 51 0 58 1;
#X connect 52 0 63 0;
#X connect 53 0 55 0;
#X connect 54 0 52 0;
#X connect 54 0 53 0;
#X connect 55 0 37 0;
#X connect 56 0 59 0;
#X connect 57 0 62 0;
#X connect 58 0 54 0;
#X connect 59 0 62 0;
#X connect 61 0 6 0;
#X connect 62 0 51 0;
#X connect 63 0 64 0;
#X connect 63 0 65 0;
#X connect 64 0 63 1;
#X connect 65 0 66 0;
#X connect 66 0 68 0;
#X connect 66 0 76 0;
#X connect 67 0 63 0;
#X connect 68 0 46 0;
#X connect 69 0 71 0;
#X connect 70 0 69 0;
#X connect 70 0 67 0;
#X connect 71 0 68 1;
#X connect 72 0 71 0;
#X connect 73 0 49 0;
#X connect 74 0 0 0;
#X connect 75 0 63 0;
#X connect 76 0 74 0;
#X connect 77 0 75 0;
#X connect 82 0 83 0;
#X connect 83 0 89 0;
#X connect 85 0 86 0;
#X connect 86 0 90 0;
#X connect 91 0 84 1;
#X connect 92 0 84 2;
#X connect 93 0 94 0;
#X connect 94 0 13 1;
#X connect 94 0 40 1;
#X connect 94 0 78 0;
#X coords 0 -1 1 1 85 52 1 70 200;
