#N canvas 635 192 1011 734 10;
#X obj 399 5 p_notein;
#X obj 399 59 p_noteclean;
#X obj 560 153 p_envelop;
#X obj 200 283 osc~;
#X obj 272 426 dac~;
#X obj 313 364 *~;
#X connect 0 0 1 0;
#X connect 0 1 1 1;
#X connect 0 2 1 2;
#X connect 1 0 3 0;
#X connect 1 2 2 1;
#X connect 1 3 2 2;
#X connect 2 0 5 1;
#X connect 3 0 5 0;
#X connect 5 0 4 1;
#X connect 5 0 4 0;
