#N canvas 427 268 1230 701 10;
#X obj 100 100 cnv 3 400 70 empty empty empty 20 12 0 14 -241463 -66577
0;
#X obj 110 33 ctlin;
#X floatatom 113 135 5 0 0 0 - - -;
#X floatatom 150 135 5 0 0 0 - - -;
#X floatatom 187 135 5 0 0 0 - - -;
#X text 112 150 val;
#X text 152 150 nr;
#X text 184 150 chnnl;
#X obj 198 33 midiin;
#X floatatom 234 135 5 0 0 0 - - -;
#X text 236 150 dev;
#X obj 297 33 notein;
#X floatatom 279 135 5 0 0 0 - - -;
#X text 278 150 note;
#X floatatom 316 135 5 0 0 0 - - -;
#X floatatom 353 135 5 0 0 0 - - -;
#X text 315 150 vel;
#X text 346 150 channel;
#X text 255 99 * MIDI MONITOR *;
#X text 110 117 |-- CONTROL IN --|;
#X text 230 117 DEVICE;
#X text 281 117 |--- NOTE IN ---|;
#X obj 413 33 pgmin;
#X floatatom 448 135 5 0 0 0 - - -;
#X text 441 150 channel;
#X floatatom 408 135 5 0 0 0 - - -;
#X text 392 117 |- PRG CHANGE -|;
#X text 409 150 val;
#X connect 1 0 2 0;
#X connect 1 1 3 0;
#X connect 1 2 4 0;
#X connect 8 1 9 0;
#X connect 11 0 12 0;
#X connect 11 1 14 0;
#X connect 11 2 15 0;
#X connect 22 0 25 0;
#X connect 22 1 23 0;
#X coords 0 -1 1 1 400 70 1 100 100;
