#N canvas 801 275 450 300 10;
#X obj 38 101 inlet;
#X obj 38 237 outlet;
#X obj 152 237 outlet;
#X text 104 101 data | presetNr | outletNr;
#X obj 95 237 outlet;
#X obj 95 177 unpack f f;
#X floatatom 103 206 5 0 0 0 - - -;
#X floatatom 167 207 5 0 0 0 - - -;
#X obj 38 135 route INIT;
#X connect 0 0 8 0;
#X connect 5 0 4 0;
#X connect 5 0 6 0;
#X connect 5 1 2 0;
#X connect 5 1 7 0;
#X connect 8 0 5 0;
#X connect 8 1 1 0;
#X coords 0 -1 1 1 165 20 2 100 100;
