#N canvas 489 300 1001 750 10;
#X obj 135 44 inlet;
#X text 137 27 bang;
#X obj 154 315 bng 15 250 50 0 empty empty empty 17 7 0 10 -262144
-1 -1;
#X obj 199 315 bng 15 250 50 0 empty empty empty 17 7 0 10 -262144
-1 -1;
#X obj 135 66 bng 15 250 50 0 empty empty empty 17 7 0 10 -262144 -1
-1;
#X floatatom 184 64 5 0 0 0 - - -;
#X floatatom 234 64 5 0 0 0 - - -;
#X text 231 25 chnl nr;
#X obj 234 84 s \$0chnlnr;
#X obj 197 466 r \$0chnlnr;
#N canvas 1332 525 356 352 midireceive 0;
#X obj 57 211 outlet;
#X obj 50 23 ctlin;
#X obj 96 31 r \$0ctrlnr;
#X obj 110 94 r \$0chnlnr;
#X obj 30 93 spigot;
#X obj 63 54 select;
#X obj 77 117 select;
#X obj 44 158 spigot;
#X msg 63 74 1;
#X msg 77 137 1;
#X floatatom 255 79 5 0 0 0 - - -;
#X floatatom 198 142 5 0 0 0 - - -;
#X floatatom 220 80 5 0 0 0 - - -;
#X floatatom 159 141 5 0 0 0 - - -;
#X floatatom 145 244 5 0 0 0 - - -;
#X obj 130 244 bng 15 250 50 0 empty empty empty 17 7 0 10 -262144
-1 -1;
#X msg 96 75 0;
#X msg 119 145 0;
#X connect 1 0 4 0;
#X connect 1 1 5 0;
#X connect 1 1 12 0;
#X connect 1 2 6 0;
#X connect 1 2 13 0;
#X connect 2 0 5 1;
#X connect 2 0 10 0;
#X connect 3 0 6 1;
#X connect 3 0 11 0;
#X connect 4 0 7 0;
#X connect 5 0 8 0;
#X connect 5 1 16 0;
#X connect 6 0 9 0;
#X connect 6 1 17 0;
#X connect 7 0 0 0;
#X connect 7 0 14 0;
#X connect 8 0 4 1;
#X connect 9 0 7 1;
#X connect 14 0 15 0;
#X connect 16 0 4 1;
#X connect 17 0 7 1;
#X restore 209 163 pd midireceive;
#X obj 154 291 select 1;
#X obj 174 238 tgl 15 0 empty empty toggle_state 17 7 0 10 -262144
-1 -1 1 1;
#X obj 184 44 inlet;
#X obj 234 44 inlet;
#X floatatom 177 396 5 0 0 0 - - -;
#X msg 79 347 127;
#X msg 105 347 0;
#X obj 79 325 loadbang;
#X obj 154 364 f;
#X obj 199 364 f;
#X obj 209 184 select 127;
#X msg 209 204 1;
#X msg 266 204 0;
#X obj 154 264 f;
#X obj 339 403 s \$0color;
#X obj 299 331 select 0;
#X msg 344 380 color 15 13 \, label ON \, label_pos 16 23;
#X msg 299 358 color 10 11 \, label OFF \, label_pos 13 23;
#X obj 401 303 tgl 48 0 empty empty empty 17 7 0 10 -262144 -1 -1 1
1;
#X obj 158 526 noteout;
#X text 181 25 note nr;
#X obj 184 106 s \$0notenr;
#X obj 150 430 r \$0notenr;
#X obj 135 187 t b b b;
#X obj 135 457 f;
#X obj 649 286 change;
#X obj 649 263 int;
#X obj 699 356 r \$0chnlnr;
#X obj 660 393 noteout;
#X obj 649 308 t f b;
#X msg 676 336 0;
#X obj 622 99 bng 15 250 50 0 empty empty empty 17 7 0 10 -262144 -1
-1;
#X obj 622 144 t b b;
#X obj 649 238 line;
#X msg 666 192 0 0;
#X obj 622 41 inlet;
#X text 601 20 emergency stop;
#X obj 4 20 printControllers \$0;
#X msg 603 192 127 2400;
#X connect 0 0 4 0;
#X connect 2 0 19 0;
#X connect 3 0 20 0;
#X connect 4 0 34 0;
#X connect 5 0 32 0;
#X connect 6 0 8 0;
#X connect 9 0 30 2;
#X connect 10 0 21 0;
#X connect 11 0 2 0;
#X connect 11 1 3 0;
#X connect 12 0 24 1;
#X connect 12 0 29 0;
#X connect 13 0 5 0;
#X connect 14 0 6 0;
#X connect 15 0 30 1;
#X connect 16 0 19 1;
#X connect 17 0 20 1;
#X connect 18 0 16 0;
#X connect 18 0 17 0;
#X connect 19 0 15 0;
#X connect 20 0 15 0;
#X connect 21 0 22 0;
#X connect 21 1 23 0;
#X connect 22 0 12 0;
#X connect 23 0 12 0;
#X connect 24 0 11 0;
#X connect 26 0 28 0;
#X connect 26 1 27 0;
#X connect 27 0 25 0;
#X connect 28 0 25 0;
#X connect 33 0 35 1;
#X connect 34 0 35 0;
#X connect 34 1 24 0;
#X connect 34 2 12 0;
#X connect 35 0 30 0;
#X connect 36 0 40 0;
#X connect 37 0 36 0;
#X connect 38 0 39 2;
#X connect 40 0 39 0;
#X connect 40 1 41 0;
#X connect 41 0 39 1;
#X connect 42 0 43 0;
#X connect 43 0 49 0;
#X connect 43 1 45 0;
#X connect 44 0 37 0;
#X connect 45 0 44 0;
#X connect 46 0 42 0;
#X connect 49 0 44 0;
#X coords 0 -1 1 1 50 52 2 400 300;
