#N canvas 454 214 1001 750 10;
#X obj 110 52 inlet;
#X text 112 35 bang;
#X obj 134 315 bng 15 250 50 0 empty empty empty 17 7 0 10 -262144
-1 -1;
#X obj 179 315 bng 15 250 50 0 empty empty empty 17 7 0 10 -262144
-1 -1;
#X obj 110 74 bng 15 250 50 0 empty empty empty 17 7 0 10 -262144 -1
-1;
#X floatatom 182 72 5 0 0 0 - - -;
#X floatatom 251 72 5 0 0 0 - - -;
#X text 179 33 ctrl nr;
#X text 248 33 chnl nr;
#X obj 182 92 s \$0ctrlnr;
#X obj 251 92 s \$0chnlnr;
#X obj 67 569 ctlout;
#X obj 83 525 r \$0ctrlnr;
#X obj 100 545 r \$0chnlnr;
#N canvas 1332 525 356 352 midireceive 0;
#X obj 57 211 outlet;
#X obj 50 23 ctlin;
#X obj 96 31 r \$0ctrlnr;
#X obj 110 94 r \$0chnlnr;
#X obj 30 93 spigot;
#X obj 63 54 select;
#X obj 77 117 select;
#X obj 44 158 spigot;
#X msg 63 74 1;
#X msg 77 137 1;
#X floatatom 255 79 5 0 0 0 - - -;
#X floatatom 198 142 5 0 0 0 - - -;
#X floatatom 220 80 5 0 0 0 - - -;
#X floatatom 159 141 5 0 0 0 - - -;
#X floatatom 145 244 5 0 0 0 - - -;
#X obj 130 244 bng 15 250 50 0 empty empty empty 17 7 0 10 -262144
-1 -1;
#X msg 96 75 0;
#X msg 119 145 0;
#X connect 1 0 4 0;
#X connect 1 1 5 0;
#X connect 1 1 12 0;
#X connect 1 2 6 0;
#X connect 1 2 13 0;
#X connect 2 0 5 1;
#X connect 2 0 10 0;
#X connect 3 0 6 1;
#X connect 3 0 11 0;
#X connect 4 0 7 0;
#X connect 5 0 8 0;
#X connect 5 1 16 0;
#X connect 6 0 9 0;
#X connect 6 1 17 0;
#X connect 7 0 0 0;
#X connect 7 0 14 0;
#X connect 8 0 4 1;
#X connect 9 0 7 1;
#X connect 14 0 15 0;
#X connect 16 0 4 1;
#X connect 17 0 7 1;
#X restore 230 138 pd midireceive;
#X obj 134 291 select 1;
#X obj 149 243 tgl 15 0 empty empty toggle_state 17 7 0 10 -262144
-1 -1 0 1;
#X obj 182 52 inlet;
#X obj 251 52 inlet;
#X floatatom 157 396 5 0 0 0 - - -;
#X msg 197 337 127;
#X msg 223 337 0;
#X obj 197 315 loadbang;
#X obj 134 364 f;
#X obj 179 364 f;
#X obj 230 182 select 127;
#X msg 230 202 1;
#X msg 287 202 0;
#X obj 134 264 f;
#X obj 401 303 cnv 15 48 48 empty \$0color OFF 13 23 0 14 -233017 -128992
0;
#X obj 379 403 s \$0color;
#X obj 339 258 select 0;
#X msg 384 380 color 15 13 \, label ON \, label_pos 16 23;
#X msg 339 358 color 10 11 \, label OFF \, label_pos 13 23;
#X obj 67 445 spigot;
#X obj 110 204 t b b b;
#X msg 100 264 1;
#X obj 230 159 t f b;
#X msg 259 428 0;
#X text 74 490 This avoids midi-loop-of-death.;
#X text 74 462 only output if triggered from within the preset-pd-patch.
;
#X text 74 476 don't send if triggered via midi-maping from external
source;
#X obj 13 8 printControllers \$0;
#X connect 0 0 4 0;
#X connect 2 0 23 0;
#X connect 3 0 24 0;
#X connect 4 0 35 0;
#X connect 5 0 9 0;
#X connect 6 0 10 0;
#X connect 12 0 11 1;
#X connect 13 0 11 2;
#X connect 14 0 37 0;
#X connect 15 0 2 0;
#X connect 15 1 3 0;
#X connect 16 0 28 1;
#X connect 16 0 31 0;
#X connect 17 0 5 0;
#X connect 18 0 6 0;
#X connect 19 0 34 0;
#X connect 20 0 23 1;
#X connect 21 0 24 1;
#X connect 22 0 20 0;
#X connect 22 0 21 0;
#X connect 23 0 19 0;
#X connect 24 0 19 0;
#X connect 25 0 26 0;
#X connect 25 1 27 0;
#X connect 26 0 16 0;
#X connect 27 0 16 0;
#X connect 28 0 15 0;
#X connect 31 0 33 0;
#X connect 31 1 32 0;
#X connect 32 0 30 0;
#X connect 33 0 30 0;
#X connect 34 0 11 0;
#X connect 35 0 28 0;
#X connect 35 1 36 0;
#X connect 35 2 16 0;
#X connect 36 0 34 1;
#X connect 37 0 25 0;
#X connect 37 1 38 0;
#X connect 38 0 34 1;
#X coords 0 -1 1 1 50 52 2 400 300;
