#N canvas 0 22 537 430 10;
#X obj 129 281 > 0;
#X obj 78 347 spigot;
#X obj 127 347 spigot;
#X obj 102 248 t f f;
#X obj 78 393 outlet;
#X obj 127 393 outlet;
#X obj 177 393 outlet;
#X obj 177 347 spigot;
#X obj 324 69 inlet;
#X obj 177 192 spigot;
#X floatatom 323 104 5 0 0 0 - - -;
#X text 301 104 CH:;
#X obj 91 69 notein;
#X obj 91 192 spigot;
#X obj 134 192 spigot;
#X obj 171 128 ==;
#X obj 144 101 t f f;
#X obj 366 122 bng 15 250 50 0 empty empty empty 17 7 0 10 -262144
-1 -1;
#X text 325 121 signal;
#X obj 366 142 bng 15 250 50 0 empty empty empty 17 7 0 10 -262144
-1 -1;
#X text 335 141 thru;
#X connect 0 0 1 1;
#X connect 0 0 2 1;
#X connect 0 0 7 1;
#X connect 1 0 4 0;
#X connect 1 0 19 0;
#X connect 2 0 5 0;
#X connect 3 0 2 0;
#X connect 3 1 0 0;
#X connect 7 0 6 0;
#X connect 8 0 10 0;
#X connect 9 0 7 0;
#X connect 10 0 15 1;
#X connect 12 0 13 0;
#X connect 12 0 17 0;
#X connect 12 1 14 0;
#X connect 12 2 16 0;
#X connect 13 0 1 0;
#X connect 14 0 3 0;
#X connect 15 0 9 1;
#X connect 15 0 14 1;
#X connect 15 0 13 1;
#X connect 16 1 15 0;
#X coords 0 -1 1 1 85 60 2 300 100;
