#N canvas 869 330 1001 750 10;
#X obj 142 44 inlet;
#X text 212 25 ctrl nr;
#X text 283 25 chnl nr;
#X obj 215 68 s \$0ctrlnr;
#X obj 286 68 s \$0chnlnr;
#X obj 142 439 ctlout;
#X obj 158 398 r \$0ctrlnr;
#X obj 175 418 r \$0chnlnr;
#X obj 215 44 inlet;
#X obj 286 44 inlet;
#X obj 31 303 bng 48 500 50 0 empty empty empty 17 7 0 10 -262144 -159808
-1;
#X obj 6 20 printControllers \$0;
#X msg 139 283 127;
#X obj 142 130 p_midi_inlet;
#X obj 221 304 s requestMidiLinkAdress;
#X obj 221 231 pack f f;
#X text 238 6 midi-link;
#X obj 437 66 r receiveMidiLinkAdress;
#X obj 227 210 s \$0presetnr;
#X obj 273 189 s \$0outletnr;
#X obj 432 182 r \$0presetnr;
#X obj 485 205 r \$0outletnr;
#X obj 417 203 f;
#X obj 470 228 f;
#X obj 437 116 unpack f f f f;
#X obj 390 157 t f b;
#X obj 443 157 t f b;
#X text 410 277 if both adresses match;
#X floatatom 432 514 5 0 0 0 - - -;
#X floatatom 502 516 5 0 0 0 - - -;
#X text 140 14 bang or init;
#X obj 502 486 r \$0chnlnr;
#X obj 432 486 r \$0ctrlnr;
#X obj 476 426 s \$0ctrlnr;
#X obj 503 404 s \$0chnlnr;
#X obj 746 154 print incomming;
#X floatatom 35 309 3 0 0 0 - - -;
#X floatatom 55 309 3 0 0 0 - - -;
#X floatatom 35 329 3 0 0 0 - - -;
#X floatatom 55 329 3 0 0 0 - - -;
#X floatatom 660 511 5 0 0 0 - - -;
#X obj 443 250 !=;
#X obj 390 226 !=;
#X obj 406 299 ||;
#X obj 659 448 select 1;
#X obj 653 474 bng 15 250 50 0 empty empty empty 17 7 0 10 -262144
-1 -1;
#X obj 707 475 bng 15 250 50 0 empty empty empty 17 7 0 10 -262144
-1 -1;
#X obj 406 321 select 0;
#X obj 476 365 f;
#X obj 503 365 f;
#X text 238 853 syntax: receiver-presetNr \, receiver-outletNr \, receiver-ctrlNr
\, receiver-chNr;
#X text 584 56 syntax: receiver-presetNr \, receiver-outletNr \, receiver-ctrlNr
\, receiver-chNr;
#X connect 0 0 13 0;
#X connect 6 0 5 1;
#X connect 7 0 5 2;
#X connect 8 0 3 0;
#X connect 9 0 4 0;
#X connect 12 0 5 0;
#X connect 13 0 12 0;
#X connect 13 0 10 0;
#X connect 13 1 15 0;
#X connect 13 1 18 0;
#X connect 13 2 15 1;
#X connect 13 2 19 0;
#X connect 15 0 14 0;
#X connect 17 0 24 0;
#X connect 17 0 35 0;
#X connect 20 0 22 1;
#X connect 20 0 36 0;
#X connect 21 0 23 1;
#X connect 21 0 37 0;
#X connect 22 0 42 1;
#X connect 23 0 41 1;
#X connect 24 0 25 0;
#X connect 24 1 26 0;
#X connect 24 2 48 1;
#X connect 24 3 49 1;
#X connect 25 0 42 0;
#X connect 25 1 22 0;
#X connect 26 0 41 0;
#X connect 26 1 23 0;
#X connect 31 0 29 0;
#X connect 31 0 39 0;
#X connect 32 0 28 0;
#X connect 32 0 38 0;
#X connect 41 0 43 1;
#X connect 42 0 43 0;
#X connect 43 0 47 0;
#X connect 44 0 45 0;
#X connect 44 1 46 0;
#X connect 47 0 49 0;
#X connect 47 0 48 0;
#X connect 48 0 33 0;
#X connect 49 0 34 0;
#X coords 0 -1 1 1 50 52 2 30 300;
