#N canvas 70 112 1001 865 10;
#X obj 464 303 tgl 15 0 empty empty empty 17 7 0 10 #fcfcfc #000000
#000000 1 1 1;
#X obj 94 53 inlet;
#X obj 144 53 inlet;
#X obj 194 53 inlet;
#X obj 326 306 ==;
#X obj 308 247 spigot;
#X obj 358 246 spigot;
#X floatatom 313 275 5 0 0 0 - - - 0 0 1, f 5;
#X floatatom 373 277 5 0 0 0 - - - 0 0 1, f 5;
#X obj 308 333 tgl 15 0 empty empty empty 17 7 0 10 #fcfcfc #000000
#000000 0 1 1;
#X obj 362 193 >= 1;
#X obj 362 214 tgl 15 0 empty empty empty 17 7 0 10 #fcfcfc #000000
#000000 0 1 1;
#X obj 400 214 tgl 15 0 empty empty empty 17 7 0 10 #fcfcfc #000000
#000000 0 1 1;
#X obj 400 193 <= 1;
#X obj 326 332 select 1;
#X obj 352 374 bng 15 250 50 0 empty empty empty 17 7 0 10 #fcfcfc
#000000 #000000 1;
#X obj 333 374 bng 15 250 50 0 empty empty empty 17 7 0 10 #fcfcfc
#000000 #000000 1;
#X msg 332 395 0;
#X obj 174 219 select 0;
#X obj 144 275 tgl 15 0 empty empty empty 17 7 0 10 #fcfcfc #000000
#000000 0 1 1;
#X obj 111 290 spigot;
#X msg 134 248 0;
#X msg 161 247 1;
#X text 335 171 determine note equals lastnote;
#X obj 63 290 spigot;
#X text 58 196 pass all pitch/vel if( vel != null );
#X text 166 399 pass all non-zero vels;
#X text 56 488 pitch if vel != zero;
#X obj 93 803 outlet;
#X obj 147 804 outlet;
#X obj 204 804 outlet;
#X obj 95 574 spigot;
#X obj 149 575 spigot;
#X obj 206 575 spigot;
#X obj 875 248 f;
#X obj 905 248 f;
#X obj 935 248 f;
#X obj 279 574 spigot;
#X obj 333 575 spigot;
#X obj 390 575 spigot;
#X obj 440 466 select 1;
#X msg 386 500 1;
#X msg 416 500 0;
#X msg 446 500 0;
#X msg 476 500 1;
#X text 148 823 midi;
#X text 94 824 freq;
#X text 118 840 pitch;
#X obj 464 253 loadbang;
#X msg 464 276 1;
#X obj 297 804 outlet;
#X text 481 301 cleanup notes;
#X obj 564 303 tgl 15 0 empty empty empty 17 7 0 10 #fcfcfc #000000
#000000 1 1 1;
#X text 581 301 split vel;
#X obj 563 253 loadbang;
#X text 241 442 pass zero-vel only;
#X text 238 456 if note == lastnote;
#X text 192 823 velocity;
#X text 292 822 zeroVelocity;
#X text 496 482 bypass;
#N canvas 680 525 586 472 splitVelocity 0;
#X obj 89 50 inlet;
#X obj 239 49 inlet;
#X obj 98 400 outlet;
#X obj 329 371 outlet;
#X obj 275 253 > 0;
#X obj 248 228 t f f;
#X obj 275 277 select 0;
#X msg 274 300 0;
#X obj 89 175 !spigot;
#X obj 216 176 spigot;
#X obj 241 342 spigot;
#X msg 324 300 1;
#X connect 0 0 8 0;
#X connect 0 0 9 0;
#X connect 1 0 8 1;
#X connect 1 0 9 1;
#X connect 4 0 6 0;
#X connect 5 0 10 0;
#X connect 5 1 4 0;
#X connect 6 0 7 0;
#X connect 6 1 11 0;
#X connect 7 0 3 0;
#X connect 7 0 10 1;
#X connect 8 0 2 0;
#X connect 9 0 5 0;
#X connect 10 0 2 0;
#X connect 11 0 10 1;
#X restore 204 768 pd splitVelocity;
#X msg 563 276 1;
#X text 462 328 freq;
#X text 494 328 midinote;
#X text 550 328 veloc;
#X text 590 328 zeroVelo;
#X connect 0 0 40 0;
#X connect 1 0 24 0;
#X connect 1 0 34 0;
#X connect 2 0 20 0;
#X connect 2 0 5 0;
#X connect 2 0 6 0;
#X connect 2 0 35 0;
#X connect 3 0 18 0;
#X connect 3 0 10 0;
#X connect 3 0 13 0;
#X connect 3 0 36 0;
#X connect 4 0 9 0;
#X connect 4 0 14 0;
#X connect 5 0 7 0;
#X connect 5 0 4 1;
#X connect 6 0 4 0;
#X connect 6 0 8 0;
#X connect 10 0 11 0;
#X connect 11 0 5 1;
#X connect 12 0 6 1;
#X connect 13 0 12 0;
#X connect 14 0 16 0;
#X connect 14 1 15 0;
#X connect 16 0 17 0;
#X connect 17 0 33 0;
#X connect 18 0 21 0;
#X connect 18 1 22 0;
#X connect 18 1 33 0;
#X connect 19 0 20 1;
#X connect 19 0 24 1;
#X connect 20 0 32 0;
#X connect 21 0 19 0;
#X connect 22 0 19 0;
#X connect 24 0 31 0;
#X connect 31 0 28 0;
#X connect 32 0 29 0;
#X connect 33 0 60 0;
#X connect 34 0 37 0;
#X connect 35 0 38 0;
#X connect 36 0 39 0;
#X connect 37 0 28 0;
#X connect 38 0 29 0;
#X connect 39 0 60 0;
#X connect 40 0 41 0;
#X connect 40 0 43 0;
#X connect 40 1 42 0;
#X connect 40 1 44 0;
#X connect 41 0 31 1;
#X connect 41 0 32 1;
#X connect 41 0 33 1;
#X connect 42 0 31 1;
#X connect 42 0 32 1;
#X connect 42 0 33 1;
#X connect 43 0 37 1;
#X connect 43 0 38 1;
#X connect 43 0 39 1;
#X connect 44 0 37 1;
#X connect 44 0 38 1;
#X connect 44 0 39 1;
#X connect 48 0 49 0;
#X connect 49 0 0 0;
#X connect 52 0 60 1;
#X connect 54 0 61 0;
#X connect 60 0 30 0;
#X connect 60 1 50 0;
#X connect 61 0 52 0;
#X coords 0 -1 1 1 185 30 2 460 300;
