#N canvas 262 101 1001 865 10;
#X obj 95 649 mtof;
#X obj 192 40 notein;
#X obj 95 694 outlet;
#X obj 149 478 spigot;
#X msg 197 285 1;
#X obj 577 99 % 16;
#X floatatom 577 142 5 0 0 0 - - -;
#X floatatom 441 140 5 0 0 0 - - -;
#X text 473 140 device;
#X text 608 141 channel;
#X obj 149 511 spigot;
#X msg 351 261 set \$1;
#X msg 351 291 1;
#X obj 577 162 spigot;
#X obj 682 142 tgl 20 0 empty empty learn 24 7 0 10 -262144 -1 -1 0
1;
#X obj 441 162 spigot;
#X obj 336 355 ==;
#X obj 182 355 ==;
#X floatatom 158 66 5 0 0 0 - - -;
#X floatatom 226 66 5 0 0 0 - - -;
#X floatatom 193 66 5 0 0 0 - - -;
#X obj 441 99 expr ( $f1 / 16 ) + 1;
#X obj 441 119 int;
#X obj 227 230 t b f;
#X msg 197 255 set \$1;
#X obj 376 237 t b f;
#X obj 149 542 route note;
#X obj 206 575 route vel;
#X floatatom 149 598 5 0 0 0 - - -;
#X floatatom 206 599 5 0 0 0 - - -;
#X msg 68 167 note \$1;
#X msg 140 166 vel \$1;
#X text 207 357 filter device;
#X text 360 357 filter channel;
#X obj 149 695 outlet;
#X obj 206 695 outlet;
#X obj 627 303 bng 15 250 50 0 empty empty empty 17 7 0 10 -262144
-1 -1;
#X msg 577 244 0;
#X obj 577 223 delay 200;
#X text 606 244 disable learn mode;
#X text 594 301 learn;
#X text 466 324 channel:;
#X text 561 324 device:;
#X obj 460 36 print WARNING: Input not yet implemented;
#X obj 460 -4 inlet;
#X msg 460 16 should accept set commands for device and channle: \$1
;
#X obj 512 303 bng 15 250 50 0 empty empty empty 17 7 0 10 -13381 -4034
-1;
#X obj 574 303 tgl 15 0 empty empty empty 17 7 0 10 -86277 -204786
-1 0 1;
#X obj 234 442 p_ab;
#X msg 250 414 1;
#X obj 284 442 p_ab;
#X msg 300 414 1;
#X obj 344 419 tgl 15 0 empty empty empty 17 7 0 10 -262144 -1 -1 0
1;
#X text 529 301 all_ins;
#X floatatom 517 325 5 0 0 0 - - -;
#X floatatom 606 325 5 0 0 0 - - -;
#X msg 652 328 0;
#X obj 290 243 loadbang;
#X obj 828 194 !;
#X obj 795 221 spigot;
#X obj 844 224 metro 500;
#X text 784 244 blink learn mode indicator;
#X connect 0 0 2 0;
#X connect 1 0 18 0;
#X connect 1 1 20 0;
#X connect 1 2 5 0;
#X connect 1 2 19 0;
#X connect 1 2 21 0;
#X connect 3 0 10 0;
#X connect 4 0 17 1;
#X connect 4 0 55 0;
#X connect 5 0 6 0;
#X connect 6 0 13 0;
#X connect 6 0 16 0;
#X connect 7 0 15 0;
#X connect 7 0 17 0;
#X connect 10 0 26 0;
#X connect 11 0 12 0;
#X connect 12 0 16 1;
#X connect 12 0 54 0;
#X connect 13 0 25 0;
#X connect 13 0 38 0;
#X connect 14 0 13 1;
#X connect 14 0 15 1;
#X connect 14 0 58 0;
#X connect 14 0 60 0;
#X connect 15 0 23 0;
#X connect 15 0 38 0;
#X connect 16 0 50 0;
#X connect 16 0 51 0;
#X connect 17 0 48 0;
#X connect 17 0 49 0;
#X connect 18 0 30 0;
#X connect 20 0 31 0;
#X connect 21 0 22 0;
#X connect 22 0 7 0;
#X connect 23 0 4 0;
#X connect 23 1 24 0;
#X connect 24 0 4 0;
#X connect 25 0 12 0;
#X connect 25 1 11 0;
#X connect 26 0 28 0;
#X connect 26 1 27 0;
#X connect 27 0 29 0;
#X connect 28 0 0 0;
#X connect 28 0 34 0;
#X connect 28 0 46 0;
#X connect 29 0 35 0;
#X connect 30 0 3 0;
#X connect 31 0 3 0;
#X connect 36 0 56 0;
#X connect 36 0 59 0;
#X connect 37 0 14 0;
#X connect 38 0 37 0;
#X connect 44 0 45 0;
#X connect 45 0 43 0;
#X connect 47 0 52 0;
#X connect 48 0 3 1;
#X connect 49 0 48 1;
#X connect 50 0 10 1;
#X connect 51 0 50 1;
#X connect 52 0 48 2;
#X connect 52 0 50 2;
#X connect 56 0 47 0;
#X connect 57 0 12 0;
#X connect 57 0 4 0;
#X connect 58 0 59 1;
#X connect 59 0 14 0;
#X connect 60 0 36 0;
#X coords 0 -1 1 1 185 48 1 460 300;
