#N canvas 597 32 1297 953 12;
#X obj 261 130 bng 57 250 50 0 empty empty empty 17 7 0 10 #fcfcfc
#000000 #000000 1;
#X floatatom 206 493 5 0 0 0 - - - 0 0 1, f 5;
#X floatatom 268 493 5 0 0 0 - - - 0 0 1, f 5;
#X msg 337 493 0;
#X floatatom 391 493 5 0 0 0 - - - 0 0 1, f 5;
#X obj 184 752 pack f f;
#X obj 408 752 pack f f f;
#X obj 218 339 t b b;
#X obj 335 339 t b b b;
#X obj 1014 361 tgl 15 0 empty empty on/off -41 6 0 10 #fcfcfc #000000
#000000 113 113 1;
#X obj 418 203 metro 2000;
#X floatatom 418 286 5 0 0 0 - - - 0 0 1, f 5;
#X obj 418 257 random 500;
#X floatatom 512 228 5 0 0 0 - - - 0 0 1, f 5;
#X obj 308 794 vline~;
#X obj 312 629 * -1;
#X obj 475 659 * 2;
#X obj 294 658 f;
#X obj 256 289 t b b b;
#X obj 295 752 pack f f f;
#X obj 276 339 t b b;
#X obj 825 383 vsl 22 94 0.025 2.5 1 0 empty empty attack 0 -9 0 10
#fcfcfc #000000 #000000 3400 1 0 1;
#X obj 851 383 vsl 14 94 0.6 60 1 0 empty empty empty 0 -9 0 10 #fcfcfc
#000000 #000000 0 1 0 1;
#X obj 740 604 p+;
#X floatatom 740 687 5 0 0 0 - - - 0 0 1, f 5;
#X obj 740 658 clip 0 10000;
#X obj 880 383 vsl 22 94 0.025 2.5 1 0 empty empty decay 0 -9 0 10
#fcfcfc #000000 #000000 3200 1 0 1;
#X obj 906 383 vsl 14 94 0.6 60 1 0 empty empty empty 0 -9 0 10 #fcfcfc
#000000 #000000 0 1 0 1;
#X obj 850 604 p+;
#X floatatom 850 687 5 0 0 0 - - - 0 0 1, f 5;
#X obj 850 658 clip 0 10000;
#X obj 740 631 - 0.623;
#X obj 850 631 - 0.623;
#X floatatom 542 541 5 0 100 0 - - - 0 1 1, f 5;
#X obj 362 630 +;
#X text 388 629 plateau;
#X obj 475 688 +;
#X obj 534 571 clip 0 10000;
#X text 505 682 plateau;
#X text 261 467 attack;
#X text 387 465 decay;
#X text 547 513 plateau;
#X text 185 469 amount;
#N canvas 735 25 902 854 randomAmount 0;
#X floatatom 525 380 5 0 0 0 - - - 0 0 1, f 5;
#X obj 525 353 random 2;
#X obj 525 405 select 1;
#X msg 525 434 -1;
#X msg 565 434 1;
#X obj 332 353 random 200;
#X obj 332 382 / 200;
#X floatatom 332 411 5 0 0 0 - - - 0 0 1, f 5;
#X obj 493 181 inlet;
#X obj 573 181 inlet;
#X text 566 158 randomness;
#X obj 663 181 inlet;
#X text 656 158 amount;
#X floatatom 573 210 5 0 0 0 - - - 0 0 1, f 5;
#X floatatom 663 210 5 0 0 0 - - - 0 0 1, f 5;
#X obj 332 439 *;
#X obj 493 307 t b b;
#X obj 371 464 expr 1 - \\$f1;
#X floatatom 371 493 5 0 0 0 - - - 0 0 1, f 5;
#X obj 332 530 +;
#X obj 332 559 *;
#X floatatom 332 668 5 0 0 0 - - - 0 0 1, f 5;
#X obj 332 696 outlet;
#X obj 332 613 *;
#X connect 0 0 2 0;
#X connect 1 0 0 0;
#X connect 2 0 3 0;
#X connect 2 1 4 0;
#X connect 3 0 23 1;
#X connect 4 0 23 1;
#X connect 5 0 6 0;
#X connect 6 0 7 0;
#X connect 7 0 15 0;
#X connect 8 0 16 0;
#X connect 9 0 13 0;
#X connect 11 0 14 0;
#X connect 13 0 15 1;
#X connect 13 0 17 0;
#X connect 14 0 20 1;
#X connect 15 0 19 0;
#X connect 16 0 5 0;
#X connect 16 1 1 0;
#X connect 17 0 18 0;
#X connect 18 0 19 1;
#X connect 19 0 20 0;
#X connect 20 0 23 0;
#X connect 21 0 22 0;
#X connect 23 0 21 0;
#X restore 127 429 pd randomAmount;
#X obj 931 384 hsl 57 26 0 1 0 0 empty empty amount 10 10 0 10 #fcfcfc
#000000 #000000 1620 1 0 1;
#X obj 931 414 hsl 57 26 0 1 0 0 empty empty random 10 10 0 10 #fcfcfc
#000000 #000000 5600 1 0 1;
#X obj 509 659 * 2;
#X obj 1121 280 loadbang;
#X obj 1121 309 s \$0lb;
#X msg 937 315 0.2;
#X msg 972 316 0.8;
#X obj 899 237 r \$0lb;
#X obj 1147 463 s \$0random;
#X obj 1147 430 s \$0amount;
#X obj 178 375 r \$0random;
#X obj 218 395 r \$0amount;
#X obj 313 431 r \$0attack;
#X obj 740 734 s \$0attack;
#X obj 850 734 s \$0decay;
#X obj 417 432 r \$0decay;
#X obj 931 450 vsl 63 27 0.01 30 1 0 empty empty plateau 10 14 0 10
#fcfcfc #000000 #000000 0 1 0 1;
#X obj 1001 383 vsl 14 94 0.01 500 1 0 empty empty empty 0 -9 0 10
#fcfcfc #000000 #000000 4782 1 0 1;
#X text 1018 383 r;
#X text 1018 403 a;
#X text 1018 443 e;
#X text 1018 423 t;
#X obj 1147 493 s \$0plateau;
#X obj 520 462 r \$0plateau;
#X msg 1006 316 0;
#X obj 995 569 s \$0rate;
#X obj 521 189 r \$0rate;
#X msg 1036 316 30;
#X obj 1114 251 bng 15 250 50 0 empty empty empty 17 7 0 10 #fcfcfc
#000000 #000000 1;
#X obj 308 853 outlet~;
#X msg 1072 316 1;
#X obj 520 491 - 0.01;
#X obj 1062 67 inlet;
#X connect 0 0 12 0;
#X connect 0 0 18 0;
#X connect 1 0 5 0;
#X connect 1 0 15 0;
#X connect 2 0 5 1;
#X connect 2 0 19 1;
#X connect 2 0 34 0;
#X connect 2 0 16 0;
#X connect 3 0 6 0;
#X connect 4 0 6 1;
#X connect 5 0 14 0;
#X connect 6 0 14 0;
#X connect 7 0 43 0;
#X connect 7 1 2 0;
#X connect 8 0 2 0;
#X connect 8 1 3 0;
#X connect 8 2 4 0;
#X connect 9 0 10 0;
#X connect 10 0 0 0;
#X connect 11 0 10 1;
#X connect 12 0 11 0;
#X connect 13 0 12 1;
#X connect 14 0 73 0;
#X connect 15 0 17 1;
#X connect 16 0 36 0;
#X connect 17 0 19 0;
#X connect 18 0 8 0;
#X connect 18 1 20 0;
#X connect 18 2 7 0;
#X connect 19 0 14 0;
#X connect 20 0 17 0;
#X connect 20 1 2 0;
#X connect 21 0 23 0;
#X connect 22 0 23 1;
#X connect 23 0 31 0;
#X connect 24 0 57 0;
#X connect 25 0 24 0;
#X connect 26 0 28 0;
#X connect 27 0 28 1;
#X connect 28 0 32 0;
#X connect 29 0 58 0;
#X connect 30 0 29 0;
#X connect 31 0 25 0;
#X connect 32 0 30 0;
#X connect 33 0 37 0;
#X connect 34 0 19 2;
#X connect 36 0 6 2;
#X connect 37 0 34 1;
#X connect 37 0 46 0;
#X connect 43 0 1 0;
#X connect 44 0 53 0;
#X connect 45 0 52 0;
#X connect 46 0 36 1;
#X connect 47 0 48 0;
#X connect 49 0 44 0;
#X connect 50 0 45 0;
#X connect 51 0 21 0;
#X connect 51 0 22 0;
#X connect 51 0 26 0;
#X connect 51 0 27 0;
#X connect 51 0 49 0;
#X connect 51 0 50 0;
#X connect 51 0 68 0;
#X connect 51 0 71 0;
#X connect 51 0 74 0;
#X connect 54 0 43 1;
#X connect 55 0 43 2;
#X connect 56 0 2 0;
#X connect 59 0 4 0;
#X connect 60 0 66 0;
#X connect 61 0 69 0;
#X connect 67 0 75 0;
#X connect 68 0 60 0;
#X connect 70 0 13 0;
#X connect 71 0 61 0;
#X connect 72 0 48 0;
#X connect 74 0 9 0;
#X connect 75 0 33 0;
#X connect 76 0 9 0;
#X coords 0 -1 1 1 220 138 1 815 355;
