#N canvas 735 25 350 390 12;
#X obj 97 78 phasor~;
#X floatatom 97 54 5 0 0 0 - - - 0 0 1, f 5;
#X obj 46 136 clip~ 0 1;
#X obj 46 113 -~ 0.5;
#X obj 46 159 *~ -1;
#X obj 99 188 +~;
#X obj 117 136 clip~ 0 0.5;
#X obj 99 266 outlet~;
#X obj 97 9 inlet;
#X obj 99 217 *~ 2;
#X connect 0 0 3 0;
#X connect 0 0 6 0;
#X connect 1 0 0 0;
#X connect 2 0 4 0;
#X connect 3 0 2 0;
#X connect 4 0 5 0;
#X connect 5 0 9 0;
#X connect 6 0 5 1;
#X connect 8 0 1 0;
#X connect 9 0 7 0;
