#N canvas 746 350 285 384 10;
#X obj 145 62 inlet;
#X obj 195 62 inlet;
#X text 101 109 low:;
#X text 101 125 high:;
#X floatatom 140 107 5 0 0 0 - - -;
#X floatatom 140 126 5 0 0 0 - - -;
#X obj 147 262 random;
#X obj 142 392 outlet;
#X obj 147 310 +;
#X obj 194 116 s \$0low;
#X obj 162 289 r \$0low;
#X obj 194 137 s \$0high;
#X obj 150 193 r \$0high;
#X obj 215 193 r \$0low;
#X obj 180 230 -;
#X obj 103 142 bng 15 250 50 0 empty empty empty 17 7 0 10 -262144
-1 -1;
#X obj 67 61 inlet;
#X connect 0 0 4 0;
#X connect 1 0 5 0;
#X connect 4 0 9 0;
#X connect 5 0 11 0;
#X connect 6 0 8 0;
#X connect 8 0 7 0;
#X connect 10 0 8 1;
#X connect 12 0 14 0;
#X connect 13 0 14 1;
#X connect 14 0 6 1;
#X connect 15 0 6 0;
#X connect 16 0 15 0;
#X coords 0 -1 1 1 85 60 1 100 100;
