#N canvas 1021 144 1113 802 10;
#X obj 141 63 inlet~;
#X obj 319 43 inlet;
#X obj 278 618 outlet~;
#X obj 393 391 *~;
#X floatatom 477 364 3 -99 300 0 - - -;
#X obj 485 390 dbtorms;
#X obj 325 294 bp~;
#X obj 277 585 *~;
#X obj 426 273 osc~;
#X floatatom 441 217 5 0 0 0 - - -;
#X obj 434 473 /;
#X floatatom 415 497 5 0 0 0 - - -;
#X floatatom 442 238 5 0 0 0 - - -;
#X obj 376 552 vline~;
#X obj 496 47 inlet;
#X obj 541 132 select 0;
#X obj 24 63 r~ sinefilterInBus;
#X obj 541 110 f \$2;
#X obj 370 135 select 0;
#X obj 370 113 f \$1;
#X msg 325 155 440;
#X text 423 239 Q;
#X text 410 221 freq;
#X obj 512 311 initbang;
#X obj 534 83 initbang;
#X obj 363 85 initbang;
#X floatatom 483 487 5 0 0 0 - - -;
#X obj 395 427 env~;
#X msg 390 519 \$1 4;
#X msg 481 336 45;
#X msg 496 152 200;
#X connect 0 0 6 0;
#X connect 1 0 9 0;
#X connect 3 0 27 0;
#X connect 4 0 5 0;
#X connect 4 0 10 1;
#X connect 5 0 3 1;
#X connect 6 0 3 0;
#X connect 7 0 2 0;
#X connect 8 0 7 0;
#X connect 9 0 6 1;
#X connect 9 0 8 0;
#X connect 10 0 11 0;
#X connect 11 0 28 0;
#X connect 12 0 6 2;
#X connect 13 0 7 1;
#X connect 14 0 12 0;
#X connect 15 0 30 0;
#X connect 15 1 12 0;
#X connect 16 0 6 0;
#X connect 17 0 15 0;
#X connect 18 0 20 0;
#X connect 18 1 9 0;
#X connect 19 0 18 0;
#X connect 20 0 9 0;
#X connect 23 0 29 0;
#X connect 24 0 17 0;
#X connect 25 0 19 0;
#X connect 27 0 10 0;
#X connect 27 0 26 0;
#X connect 28 0 13 0;
#X connect 29 0 4 0;
#X connect 30 0 12 0;
#X coords 0 -1 1 1 85 60 1 400 200;
