#N canvas 545 368 699 360 10;
#N canvas 735 25 450 300 (subpatch) 0;
#X array \$0array 100 float 0 black #0bee02;
#X coords 0 -1.1 99 1.1 200 100 1;
#X scroll 1;
#X restore 111 104 graph;
#X obj 306 64 tabwrite~ \$0array;
#X obj 104 146 tgl 15 0 empty empty empty 17 7 0 10 #fcfcfc #000000
#000000 1 1 1;
#X obj 125 21 inlet~;
#X obj 343 36 metro 189;
#X obj 15 62 loadbang;
#X msg 14 88 1;
#X msg 20 122 189;
#X obj 241 28 *~ -1;
#X obj 516 35 inlet;
#X obj 516 293 outlet;
#X obj 446 35 inlet;
#X obj 451 293 outlet;
#X obj 111 104 cnv 15 199 99 empty empty empty 20 12 0 14 #113b1f #404040
0;
#X floatatom 104 181 5 0 0 0 - - - 0 0 1, f 5;
#X text 100 146 ----------------------------------;
#X connect 2 0 4 0;
#X connect 2 0 10 0;
#X connect 3 0 8 0;
#X connect 4 0 1 0;
#X connect 5 0 6 0;
#X connect 5 0 7 0;
#X connect 6 0 2 0;
#X connect 7 0 14 0;
#X connect 8 0 1 0;
#X connect 9 0 2 0;
#X connect 11 0 14 0;
#X connect 14 0 4 1;
#X connect 14 0 12 0;
#X coords 0 -1 1 1 217 109 2 100 100;
