#N canvas -2 -957 1512 916 12;
#X obj -30 -30 preset_hub k12 1 %hidden%;
#X obj 100 80 adc~;
#X obj 100 920 p_vol;
#X obj 91 980 dac~;
#X floatatom 420 170 5 0.001 10000 0 - - - 0 1 1, f 5;
#X floatatom 520 170 5 0 0 0 - - - 0 0 1, f 5;
#X text 420 90 QLen;
#X obj 420 198 s \$0qlen;
#X obj 420 270 r \$0qlen;
#X text 520 90 Cspeed;
#X obj 520 198 s \$0cspeed;
#X obj 520 270 r \$0cspeed;
#X floatatom 420 299 5 0 0 0 - - - 0 0 1, f 5;
#X floatatom 520 299 5 0 0 0 - - - 0 0 1, f 5;
#X floatatom 620 171 5 0 0.8 0 - - - 0 1 1, f 5;
#X floatatom 620 300 5 0 0 0 - - - 0 0 1, f 5;
#X text 620 91 Rfact;
#X obj 620 199 s \$0rfact;
#X obj 620 271 r \$0rfact;
#X floatatom 720 171 5 0 0 0 - - - 0 0 1, f 5;
#X floatatom 720 300 5 0 0 0 - - - 0 0 1, f 5;
#X text 720 91 Mreflections;
#X obj 720 199 s \$0mreflect;
#X obj 720 271 r \$0mreflect;
#X msg 720 141 0;
#X text 420 110 (roomsize);
#X obj 1391 410 r \$0qlen;
#X floatatom 1391 439 5 0 0 0 - - - 0 0 1, f 5;
#X obj 1520 675 sqrt;
#X floatatom 1571 330 5 0 2000 0 - - - 0 1 1, f 5;
#X text 1611 330 m;
#X floatatom 1641 330 5 0 2000 0 - - - 0 1 1, f 5;
#X text 1681 330 n;
#X obj 1370 470 f;
#X text 1462 570 \\$f1 = m;
#X text 1522 570 \\$f2 = QLen;
#X text 1810 570 \\$f2 = QLen;
#X text 1750 570 \\$f1 = n;
#X obj 1520 646 +;
#X floatatom 1520 771 5 0 0 0 - - - 0 0 1, f 5;
#X obj 1551 400 f;
#X obj 1481 400 f;
#X obj 1440 225 bng 47 250 50 0 empty empty empty 17 7 0 10 #fcfcfc
#000000 #000000 1;
#X obj 1590 628 r \$0cspeed;
#X floatatom 1590 653 5 0 0 0 - - - 0 0 1, f 5;
#X obj 1520 701 /;
#X obj 1569 679 f;
#X obj 1520 726 * 1000;
#X obj 1322 550 expr (2 * \\$f1 * \\$f2) * (2 * \\$f1 * \\$f2);
#X obj 1610 550 expr (2 * \\$f1 * \\$f2) * (2 * \\$f1 * \\$f2);
#X obj 1641 400 f;
#X obj 1681 400 f;
#X obj 1710 465 pow;
#X obj 1641 429 +;
#X floatatom 1731 404 5 0 0 0 - - - 0 0 1, f 5;
#X obj 1731 380 r \$0rfact;
#X obj 1710 428 f;
#X obj 1440 277 t b b b b b b b b b b b b b, f 57;
#X text 1510 240 calculate reflection instance data;
#X text 1560 770 delay time;
#X floatatom 1679 770 5 0 0 0 - - - 0 0 1, f 5;
#X text 1719 770 multiplication factor;
#X floatatom 1641 458 5 0 0 0 - - - 0 0 1, f 5;
#X floatatom 1751 500 5 0 0 0 - - - 0 0 1, f 5;
#X obj 1370 710 delwrite~ \$0del 500;
#X obj 1370 750 delread~ \$0del;
#X obj 1370 779 *~;
#X obj 370 550 pp_verb~;
#X obj 810 530 r \$0qlen;
#X obj 880 530 r \$0cspeed;
#X obj 960 530 r \$0rfact;
#X obj 480 550 pp_verb~;
#X obj 590 550 pp_verb~;
#X obj 700 550 pp_verb~;
#X msg 320 490 1;
#X obj 890 590 +~;
#X obj 370 640 pp_verb~;
#X obj 810 620 r \$0qlen;
#X obj 880 620 r \$0cspeed;
#X obj 960 620 r \$0rfact;
#X obj 480 640 pp_verb~;
#X obj 590 640 pp_verb~;
#X obj 700 640 pp_verb~;
#X obj 890 680 +~;
#X obj 370 730 pp_verb~;
#X obj 810 710 r \$0qlen;
#X obj 880 710 r \$0cspeed;
#X obj 960 710 r \$0rfact;
#X obj 480 730 pp_verb~;
#X obj 590 730 pp_verb~;
#X obj 700 730 pp_verb~;
#X obj 890 760 +~;
#X obj 370 820 pp_verb~;
#X obj 810 800 r \$0qlen;
#X obj 880 800 r \$0cspeed;
#X obj 960 800 r \$0rfact;
#X obj 480 820 pp_verb~;
#X obj 590 820 pp_verb~;
#X obj 700 820 pp_verb~;
#X obj 890 860 +~;
#X obj 144 500 +~;
#X obj 144 590 +~;
#X obj 144 690 +~;
#X obj 144 780 +~;
#X obj 420 330 bng 58 250 50 0 empty empty empty 17 7 0 10 #fcfcfc
#000000 #000000 1;
#X obj 920 900 s~ \$0loopback;
#X obj 180 160 r~ \$0loopback;
#X obj 180 449 *~;
#X floatatom 201 420 5 0 0 0 - - - 0 0 1, f 5;
#X obj 201 330 r \$0rfact;
#X obj 620 20 hsl 128 17 0 127 0 0 empty empty empty -2 -8 0 10 #fcfcfc
#000000 #000000 8200 1 0 1;
#X obj 620 44 / 127;
#X obj 320 470 loadbang;
#X obj 100 140 p_ABX~;
#X obj 150 100 hsl 132 22 0 1 0 0 empty empty empty -2 -8 0 10 #fcfcfc
#000000 #000000 6600 1 0 1;
#X text 150 80 dry ----------- wet;
#X obj 180 250 hip~;
#X obj 205 191 hsl 128 15 0 60000 0 0 empty empty empty -2 -8 0 10
#fcfcfc #000000 #000000 6500 1 0 1;
#X floatatom 215 215 13 0 0 0 - - - 0 0 1, f 13;
#X msg 420 140 8;
#X msg 520 140 350;
#X msg 620 141 0.6;
#X obj 850 110 loadbang;
#X obj 259 298 r \$0qlen;
#N canvas 530 -930 450 527 resonance_calc 0;
#X obj 90 60 inlet;
#X obj 220 60 inlet;
#X obj 350 60 inlet;
#X obj 170 510 outlet;
#X obj 218 208 / 8;
#X obj 218 347 *;
#X obj 218 277 f;
#X obj 272 241 bng 15 250 50 0 empty empty empty 17 7 0 10 #fcfcfc
#000000 #000000 1;
#X floatatom 232 311 5 0 0 0 - - - 0 0 1, f 5;
#X obj 350 211 t b f;
#X obj 350 143 flatgui/knob 32 32 0 3 0 0 empty empty empty -2 -8 0
8 #fcfcfc #000000 #000000 0.9375 1 1 2 3 4;
#X obj 245 140 f;
#X obj 220 100 t b b f;
#X obj 115 140 f;
#X obj 90 100 t b b f;
#X floatatom 218 376 5 0 0 0 - - - 0 0 1, f 5;
#X connect 0 0 14 0;
#X connect 1 0 12 0;
#X connect 2 0 10 0;
#X connect 4 0 6 0;
#X connect 5 0 15 0;
#X connect 6 0 8 0;
#X connect 7 0 6 0;
#X connect 8 0 5 0;
#X connect 9 0 7 0;
#X connect 9 1 5 1;
#X connect 10 0 9 0;
#X connect 11 0 4 1;
#X connect 12 0 13 0;
#X connect 12 1 11 0;
#X connect 12 2 11 1;
#X connect 13 0 4 0;
#X connect 14 0 13 0;
#X connect 14 1 11 0;
#X connect 14 2 13 1;
#X connect 15 0 3 0;
#X restore 201 360 pd resonance_calc;
#X obj 317 322 flatgui/knob 32 32 0 3 0 0 empty empty empty -2 -8 0
8 #fcfcfc #000000 #000000 0.9375 1 1 2 3 4;
#X connect 1 0 113 0;
#X connect 1 1 113 0;
#X connect 2 0 3 0;
#X connect 2 0 3 1;
#X connect 4 0 7 0;
#X connect 5 0 10 0;
#X connect 8 0 12 0;
#X connect 11 0 13 0;
#X connect 12 0 104 0;
#X connect 13 0 104 0;
#X connect 14 0 17 0;
#X connect 15 0 104 0;
#X connect 18 0 15 0;
#X connect 19 0 22 0;
#X connect 23 0 20 0;
#X connect 24 0 19 0;
#X connect 26 0 27 0;
#X connect 27 0 33 1;
#X connect 28 0 45 0;
#X connect 29 0 41 1;
#X connect 29 0 50 1;
#X connect 31 0 40 1;
#X connect 31 0 51 1;
#X connect 33 0 48 1;
#X connect 33 0 49 1;
#X connect 38 0 28 0;
#X connect 39 0 65 0;
#X connect 40 0 49 0;
#X connect 41 0 48 0;
#X connect 42 0 57 0;
#X connect 43 0 44 0;
#X connect 44 0 46 1;
#X connect 45 0 47 0;
#X connect 46 0 45 1;
#X connect 47 0 39 0;
#X connect 48 0 38 0;
#X connect 49 0 38 1;
#X connect 50 0 53 0;
#X connect 51 0 53 1;
#X connect 52 0 60 0;
#X connect 52 0 63 0;
#X connect 53 0 52 1;
#X connect 53 0 62 0;
#X connect 54 0 56 1;
#X connect 55 0 54 0;
#X connect 56 0 52 0;
#X connect 57 2 41 0;
#X connect 57 3 40 0;
#X connect 57 4 33 0;
#X connect 57 5 46 0;
#X connect 57 6 56 0;
#X connect 57 7 50 0;
#X connect 57 8 51 0;
#X connect 60 0 66 1;
#X connect 65 0 66 0;
#X connect 67 0 75 0;
#X connect 67 1 71 1;
#X connect 67 1 76 1;
#X connect 67 2 76 2;
#X connect 67 3 71 3;
#X connect 68 0 67 4;
#X connect 68 0 71 4;
#X connect 68 0 72 4;
#X connect 68 0 73 4;
#X connect 69 0 67 5;
#X connect 69 0 71 5;
#X connect 69 0 72 5;
#X connect 69 0 73 5;
#X connect 70 0 67 6;
#X connect 70 0 71 6;
#X connect 70 0 72 6;
#X connect 70 0 73 6;
#X connect 71 0 75 0;
#X connect 71 1 72 1;
#X connect 71 2 80 2;
#X connect 71 3 72 3;
#X connect 72 0 75 0;
#X connect 72 1 73 1;
#X connect 72 2 81 2;
#X connect 72 3 73 3;
#X connect 73 0 75 0;
#X connect 73 2 82 2;
#X connect 74 0 67 2;
#X connect 74 0 67 3;
#X connect 74 0 71 2;
#X connect 74 0 72 2;
#X connect 74 0 73 2;
#X connect 74 0 76 3;
#X connect 74 0 84 3;
#X connect 74 0 92 3;
#X connect 75 0 83 1;
#X connect 76 0 83 0;
#X connect 76 1 80 1;
#X connect 76 1 84 1;
#X connect 76 2 84 2;
#X connect 76 3 80 3;
#X connect 77 0 76 4;
#X connect 77 0 80 4;
#X connect 77 0 81 4;
#X connect 77 0 82 4;
#X connect 78 0 76 5;
#X connect 78 0 80 5;
#X connect 78 0 81 5;
#X connect 78 0 82 5;
#X connect 79 0 76 6;
#X connect 79 0 80 6;
#X connect 79 0 81 6;
#X connect 79 0 82 6;
#X connect 80 0 83 0;
#X connect 80 1 81 1;
#X connect 80 2 88 2;
#X connect 80 3 81 3;
#X connect 81 0 83 0;
#X connect 81 1 82 1;
#X connect 81 2 89 2;
#X connect 81 3 82 3;
#X connect 82 0 83 0;
#X connect 82 2 90 2;
#X connect 83 0 91 1;
#X connect 84 0 91 0;
#X connect 84 1 88 1;
#X connect 84 1 92 1;
#X connect 84 2 92 2;
#X connect 84 3 88 3;
#X connect 85 0 84 4;
#X connect 85 0 88 4;
#X connect 85 0 89 4;
#X connect 85 0 90 4;
#X connect 86 0 84 5;
#X connect 86 0 88 5;
#X connect 86 0 89 5;
#X connect 86 0 90 5;
#X connect 87 0 84 6;
#X connect 87 0 88 6;
#X connect 87 0 89 6;
#X connect 87 0 90 6;
#X connect 88 0 91 0;
#X connect 88 1 89 1;
#X connect 88 2 96 2;
#X connect 88 3 89 3;
#X connect 89 0 91 0;
#X connect 89 1 90 1;
#X connect 89 2 97 2;
#X connect 89 3 90 3;
#X connect 90 0 91 0;
#X connect 90 2 98 2;
#X connect 91 0 99 1;
#X connect 92 0 99 0;
#X connect 92 1 96 1;
#X connect 92 3 96 3;
#X connect 93 0 92 4;
#X connect 93 0 96 4;
#X connect 93 0 97 4;
#X connect 93 0 98 4;
#X connect 94 0 92 5;
#X connect 94 0 96 5;
#X connect 94 0 97 5;
#X connect 94 0 98 5;
#X connect 95 0 92 6;
#X connect 95 0 96 6;
#X connect 95 0 97 6;
#X connect 95 0 98 6;
#X connect 96 0 99 0;
#X connect 96 1 97 1;
#X connect 96 3 97 3;
#X connect 97 0 99 0;
#X connect 97 1 98 1;
#X connect 97 3 98 3;
#X connect 98 0 99 0;
#X connect 99 0 105 0;
#X connect 99 0 2 0;
#X connect 100 0 67 0;
#X connect 100 0 71 0;
#X connect 100 0 72 0;
#X connect 100 0 73 0;
#X connect 100 0 101 0;
#X connect 101 0 76 0;
#X connect 101 0 80 0;
#X connect 101 0 81 0;
#X connect 101 0 82 0;
#X connect 101 0 102 0;
#X connect 102 0 84 0;
#X connect 102 0 88 0;
#X connect 102 0 89 0;
#X connect 102 0 90 0;
#X connect 102 0 103 0;
#X connect 103 0 92 0;
#X connect 103 0 96 0;
#X connect 103 0 97 0;
#X connect 103 0 98 0;
#X connect 104 0 67 1;
#X connect 106 0 107 0;
#X connect 107 0 100 1;
#X connect 108 0 107 1;
#X connect 109 0 124 0;
#X connect 110 0 111 0;
#X connect 111 0 14 0;
#X connect 112 0 74 0;
#X connect 113 0 2 0;
#X connect 113 2 100 0;
#X connect 114 0 113 3;
#X connect 117 0 116 1;
#X connect 117 0 118 0;
#X connect 119 0 4 0;
#X connect 120 0 5 0;
#X connect 121 0 14 0;
#X connect 122 0 119 0;
#X connect 122 0 120 0;
#X connect 122 0 121 0;
#X connect 123 0 124 1;
#X connect 124 0 108 0;
#X connect 125 0 124 2;
