#N canvas 170 441 450 300 10;
#X obj 31 46 inlet~;
#X obj 104 264 outlet~;
#X obj 310 33 inlet;
#X obj 106 121 hsl 128 15 0 1 0 0 empty empty empty -2 -8 0 10 #fcfcfc
#000000 #000000 400 1 0 1;
#X obj 109 239 *~;
#X obj 124 204 line~ 10;
#X obj 247 266 outlet~;
#X floatatom 247 121 5 0 0 0 - - - 0 0 1, f 5;
#X text 248 105 mult;
#X obj 233 176 *;
#X obj 186 32 loadbang;
#X msg 189 60 1;
#X obj 339 263 outlet;
#X msg 139 178 \$1 10;
#X connect 0 0 4 0;
#X connect 2 0 3 0;
#X connect 3 0 9 0;
#X connect 4 0 1 0;
#X connect 5 0 4 1;
#X connect 5 0 6 0;
#X connect 7 0 9 1;
#X connect 9 0 12 0;
#X connect 9 0 13 0;
#X connect 10 0 11 0;
#X connect 11 0 7 0;
#X connect 13 0 5 0;
#X coords 0 -1 1 1 190 40 1 100 100;
