#N canvas 170 441 550 392 10;
#X obj 31 46 inlet~;
#X obj 74 320 outlet~;
#X obj 310 33 inlet;
#X obj 106 121 hsl 128 15 0 1 0 0 empty empty empty -2 -8 0 10 #fcfcfc
#000000 #000000 2500 1 0 1;
#X obj 74 253 *~;
#X obj 89 220 line~ 10;
#X obj 143 320 outlet~;
#X floatatom 156 103 5 0 0 0 - - - 0 0 1, f 5;
#X text 127 104 mult;
#X obj 147 155 *;
#X obj 186 32 loadbang;
#X msg 189 60 1;
#X obj 240 320 outlet;
#X msg 104 194 \$1 10;
#X obj 224 103 tgl 15 0 empty empty empty 17 7 0 10 #fcfcfc #e30002
#000000 0 1 1;
#X text 197 104 mute;
#X obj 143 290 *~;
#X obj 74 290 *~;
#X obj 224 166 expr 1 - \\$f1;
#X msg 225 60 0;
#X connect 0 0 4 0;
#X connect 2 0 3 0;
#X connect 3 0 9 0;
#X connect 4 0 17 0;
#X connect 5 0 4 1;
#X connect 5 0 16 0;
#X connect 7 0 9 1;
#X connect 9 0 12 0;
#X connect 9 0 13 0;
#X connect 10 0 11 0;
#X connect 10 0 19 0;
#X connect 11 0 7 0;
#X connect 13 0 5 0;
#X connect 14 0 18 0;
#X connect 16 0 6 0;
#X connect 17 0 1 0;
#X connect 18 0 17 1;
#X connect 18 0 16 1;
#X connect 19 0 14 0;
#X coords 0 -1 1 1 144 40 1 100 100;
