#N canvas 513 38 847 814 12;
#X obj -30 -30 preset_hub k12 1 %hidden%;
#X obj 231 11 r \$0qlen;
#X floatatom 231 40 5 0 0 0 - - - 0 0 1, f 5;
#X obj 360 276 sqrt;
#X floatatom 411 -54 5 0 2000 0 - - - 0 1 1, f 5;
#X text 451 -54 m;
#X floatatom 481 -54 5 0 2000 0 - - - 0 1 1, f 5;
#X text 521 -54 n;
#X obj 210 71 f;
#X text 302 171 \\$f1 = m;
#X text 362 171 \\$f2 = QLen;
#X text 650 171 \\$f2 = QLen;
#X text 590 171 \\$f1 = n;
#X obj 360 247 +;
#X floatatom 360 372 6 0 0 0 - - - 0 0 1, f 6;
#X obj 391 1 f;
#X obj 321 1 f;
#X obj 280 -174 bng 47 250 50 0 empty empty empty 17 7 0 10 #fcfcfc
#000000 #000000 1;
#X obj 430 229 r \$0cspeed;
#X floatatom 430 254 5 0 0 0 - - - 0 0 1, f 5;
#X obj 360 302 /;
#X obj 409 280 f;
#X obj 360 327 * 1000;
#X obj 162 151 expr (2 * \\$f1 * \\$f2) * (2 * \\$f1 * \\$f2);
#X obj 450 151 expr (2 * \\$f1 * \\$f2) * (2 * \\$f1 * \\$f2);
#X obj 481 1 f;
#X obj 521 1 f;
#X obj 550 66 pow;
#X obj 481 30 +;
#X floatatom 571 5 5 0 0 0 - - - 0 0 1, f 5;
#X obj 571 -19 r \$0rfact;
#X obj 550 29 f;
#X obj 280 -122 t b b b b b b b b b b b b b, f 57;
#X text 350 -159 calculate reflection instance data;
#X text 400 371 delay time;
#X floatatom 519 371 5 0 0 0 - - - 0 0 1, f 5;
#X text 559 371 multiplication factor;
#X floatatom 481 59 5 0 0 0 - - - 0 0 1, f 5;
#X floatatom 591 101 5 0 0 0 - - - 0 0 1, f 5;
#X obj 90 291 delwrite~ \$0del 500;
#X obj 90 331 delread~ \$0del;
#X obj 90 360 *~;
#X obj 91 -276 inlet~;
#X obj 90 480 outlet~;
#X obj 190 -270 inlet;
#X obj 240 -270 inlet;
#X obj 290 -270 inlet;
#X obj 340 -270 inlet;
#X obj 410 -270 inlet;
#X obj 500 -270 inlet;
#X obj 260 480 outlet;
#X obj 330 480 outlet;
#X text 243 -250 m;
#X text 293 -250 n;
#X text 344 -250 q;
#X text 413 -250 c;
#X text 503 -250 r;
#X obj 340 -220 s \$0qlen;
#X obj 410 -220 s \$0cspeed;
#X obj 500 -220 s \$0rfact;
#X obj 411 -79 r \$0m;
#X obj 240 -221 s \$0m;
#X obj 290 -220 s \$0n;
#X obj 481 -79 r \$0n;
#X obj 260 430 r \$0m;
#X obj 330 430 r \$0n;
#X obj 260 455 + 1;
#X obj 330 455 + 1;
#X obj 200 480 outlet;
#X connect 1 0 2 0;
#X connect 2 0 8 1;
#X connect 3 0 20 0;
#X connect 4 0 16 1;
#X connect 4 0 25 1;
#X connect 6 0 15 1;
#X connect 6 0 26 1;
#X connect 8 0 23 1;
#X connect 8 0 24 1;
#X connect 13 0 3 0;
#X connect 14 0 40 0;
#X connect 15 0 24 0;
#X connect 16 0 23 0;
#X connect 17 0 32 0;
#X connect 18 0 19 0;
#X connect 19 0 21 1;
#X connect 20 0 22 0;
#X connect 21 0 20 1;
#X connect 22 0 14 0;
#X connect 23 0 13 0;
#X connect 24 0 13 1;
#X connect 25 0 28 0;
#X connect 26 0 28 1;
#X connect 27 0 35 0;
#X connect 27 0 38 0;
#X connect 28 0 27 1;
#X connect 28 0 37 0;
#X connect 29 0 31 1;
#X connect 30 0 29 0;
#X connect 31 0 27 0;
#X connect 32 2 16 0;
#X connect 32 3 15 0;
#X connect 32 4 8 0;
#X connect 32 5 21 0;
#X connect 32 6 31 0;
#X connect 32 7 25 0;
#X connect 32 8 26 0;
#X connect 35 0 41 1;
#X connect 40 0 41 0;
#X connect 41 0 43 0;
#X connect 42 0 39 0;
#X connect 44 0 17 0;
#X connect 44 0 68 0;
#X connect 45 0 61 0;
#X connect 46 0 62 0;
#X connect 47 0 57 0;
#X connect 48 0 58 0;
#X connect 49 0 59 0;
#X connect 60 0 4 0;
#X connect 63 0 6 0;
#X connect 64 0 66 0;
#X connect 65 0 67 0;
#X connect 66 0 50 0;
#X connect 67 0 51 0;
