#N canvas 0 22 1920 1031 10;
#X obj 557 92 % 16;
#X obj 594 65 + 1;
#X obj 557 65 f;
#X floatatom 557 120 5 0 0 0 - - -;
#X obj -52 199 route 0 1 2 3 4 5 6 7 8 9 10 11 12 13 14 15;
#X obj -81 258 bng 15 250 50 0 empty empty empty 17 7 0 10 -262144
-1 -1;
#X obj -61 258 bng 15 250 50 0 empty empty empty 17 7 0 10 -262144
-1 -1;
#X obj -42 258 bng 15 250 50 0 empty empty empty 17 7 0 10 -262144
-1 -1;
#X obj -22 258 bng 15 250 50 0 empty empty empty 17 7 0 10 -262144
-1 -1;
#X obj -2 258 bng 15 250 50 0 empty empty empty 17 7 0 10 -262144 -1
-1;
#X obj 18 258 bng 15 250 50 0 empty empty empty 17 7 0 10 -262144 -1
-1;
#X obj 37 258 bng 15 250 50 0 empty empty empty 17 7 0 10 -262144 -1
-1;
#X obj 57 258 bng 15 250 50 0 empty empty empty 17 7 0 10 -262144 -1
-1;
#X obj 77 258 bng 15 250 50 0 empty empty empty 17 7 0 10 -262144 -1
-1;
#X obj 97 258 bng 15 250 50 0 empty empty empty 17 7 0 10 -262144 -1
-1;
#X obj 116 258 bng 15 250 50 0 empty empty empty 17 7 0 10 -262144
-1 -1;
#X obj 136 258 bng 15 250 50 0 empty empty empty 17 7 0 10 -262144
-1 -1;
#X obj 156 258 bng 15 250 50 0 empty empty empty 17 7 0 10 -262144
-1 -1;
#X obj 176 258 bng 15 250 50 0 empty empty empty 17 7 0 10 -262144
-1 -1;
#X obj 195 258 bng 15 250 50 0 empty empty empty 17 7 0 10 -262144
-1 -1;
#X obj 215 258 bng 15 250 50 0 empty empty empty 17 7 0 10 -262144
-1 -1;
#X obj 557 40 metro 120;
#X msg 727 -16 120;
#X msg 693 -16 60;
#X msg 761 -16 240;
#X obj 557 16 tgl 15 0 empty empty empty 17 7 0 10 -262144 -1 -1 0
1;
#X obj -52 536 voice;
#X floatatom -114 304 5 0 0 0 - - -;
#X msg -147 274 36;
#X floatatom -118 504 5 0 0 0 - - -;
#X obj 373 536 voice;
#X obj 689 539 voice;
#X obj 744 539 voice;
#X obj 585 538 voice;
#X obj 640 538 voice;
#X obj 475 537 voice;
#X obj 530 537 voice;
#X obj 426 536 voice;
#X obj 266 536 voice;
#X obj 321 536 voice;
#X obj 162 536 voice;
#X obj 217 536 voice;
#X obj 52 536 voice;
#X obj 107 536 voice;
#X obj 3 536 voice;
#X obj 373 332 voice;
#X obj -52 332 voice;
#X obj 689 335 voice;
#X obj 744 335 voice;
#X obj 585 334 voice;
#X obj 640 334 voice;
#X obj 475 334 voice;
#X obj 530 333 voice;
#X obj 426 332 voice;
#X obj 266 332 voice;
#X obj 321 332 voice;
#X obj 162 332 voice;
#X obj 217 332 voice;
#X obj 52 332 voice;
#X obj 107 332 voice;
#X obj 3 332 voice;
#X obj 373 738 voice;
#X obj -52 738 voice;
#X obj 689 741 voice;
#X obj 744 741 voice;
#X obj 585 740 voice;
#X obj 640 740 voice;
#X obj 475 739 voice;
#X obj 530 739 voice;
#X obj 426 738 voice;
#X obj 266 738 voice;
#X obj 321 738 voice;
#X obj 162 738 voice;
#X obj 217 738 voice;
#X obj 52 738 voice;
#X obj 107 738 voice;
#X obj 3 738 voice;
#X floatatom -114 716 5 0 0 0 - - -;
#X msg 636 -15 50;
#X floatatom 663 14 5 0 0 0 - - -;
#X obj 874 207 route 0 1 2 3 4 5 6 7 8 9 10 11 12 13 14 15;
#X obj 845 266 bng 15 250 50 0 empty empty empty 17 7 0 10 -262144
-1 -1;
#X obj 865 266 bng 15 250 50 0 empty empty empty 17 7 0 10 -262144
-1 -1;
#X obj 884 266 bng 15 250 50 0 empty empty empty 17 7 0 10 -262144
-1 -1;
#X obj 904 266 bng 15 250 50 0 empty empty empty 17 7 0 10 -262144
-1 -1;
#X obj 924 266 bng 15 250 50 0 empty empty empty 17 7 0 10 -262144
-1 -1;
#X obj 944 266 bng 15 250 50 0 empty empty empty 17 7 0 10 -262144
-1 -1;
#X obj 963 266 bng 15 250 50 0 empty empty empty 17 7 0 10 -262144
-1 -1;
#X obj 983 266 bng 15 250 50 0 empty empty empty 17 7 0 10 -262144
-1 -1;
#X obj 1003 266 bng 15 250 50 0 empty empty empty 17 7 0 10 -262144
-1 -1;
#X obj 1023 266 bng 15 250 50 0 empty empty empty 17 7 0 10 -262144
-1 -1;
#X obj 1042 266 bng 15 250 50 0 empty empty empty 17 7 0 10 -262144
-1 -1;
#X obj 1062 266 bng 15 250 50 0 empty empty empty 17 7 0 10 -262144
-1 -1;
#X obj 1082 266 bng 15 250 50 0 empty empty empty 17 7 0 10 -262144
-1 -1;
#X obj 1102 266 bng 15 250 50 0 empty empty empty 17 7 0 10 -262144
-1 -1;
#X obj 1121 266 bng 15 250 50 0 empty empty empty 17 7 0 10 -262144
-1 -1;
#X obj 1141 266 bng 15 250 50 0 empty empty empty 17 7 0 10 -262144
-1 -1;
#X obj 874 544 voice;
#X floatatom 812 312 5 0 0 0 - - -;
#X msg 779 282 36;
#X floatatom 808 512 5 0 0 0 - - -;
#X obj 1299 544 voice;
#X obj 1615 547 voice;
#X obj 1670 547 voice;
#X obj 1511 546 voice;
#X obj 1566 546 voice;
#X obj 1401 545 voice;
#X obj 1456 545 voice;
#X obj 1352 544 voice;
#X obj 1192 544 voice;
#X obj 1247 544 voice;
#X obj 1088 544 voice;
#X obj 1143 544 voice;
#X obj 978 544 voice;
#X obj 1033 544 voice;
#X obj 929 544 voice;
#X obj 1299 340 voice;
#X obj 874 340 voice;
#X obj 1615 343 voice;
#X obj 1670 343 voice;
#X obj 1511 342 voice;
#X obj 1566 342 voice;
#X obj 1401 342 voice;
#X obj 1456 341 voice;
#X obj 1352 340 voice;
#X obj 1192 340 voice;
#X obj 1247 340 voice;
#X obj 1088 340 voice;
#X obj 1143 340 voice;
#X obj 978 340 voice;
#X obj 1033 340 voice;
#X obj 929 340 voice;
#X obj 1299 746 voice;
#X obj 874 746 voice;
#X obj 1615 749 voice;
#X obj 1670 749 voice;
#X obj 1511 748 voice;
#X obj 1566 748 voice;
#X obj 1401 747 voice;
#X obj 1456 747 voice;
#X obj 1352 746 voice;
#X obj 1192 746 voice;
#X obj 1247 746 voice;
#X obj 1088 746 voice;
#X obj 1143 746 voice;
#X obj 978 746 voice;
#X obj 1033 746 voice;
#X obj 929 746 voice;
#X floatatom 812 724 5 0 0 0 - - -;
#X obj 504 182 spigot;
#X obj 463 153 tgl 15 0 empty empty empty 17 7 0 10 -262144 -1 -1 1
1;
#X obj 595 190 spigot;
#X obj 641 165 tgl 15 0 empty empty empty 17 7 0 10 -262144 -1 -1 0
1;
#X connect 0 0 3 0;
#X connect 1 0 2 1;
#X connect 2 0 1 0;
#X connect 2 0 0 0;
#X connect 3 0 149 0;
#X connect 3 0 151 0;
#X connect 4 0 5 0;
#X connect 4 1 6 0;
#X connect 4 2 7 0;
#X connect 4 3 8 0;
#X connect 4 4 9 0;
#X connect 4 5 10 0;
#X connect 4 6 11 0;
#X connect 4 7 12 0;
#X connect 4 8 13 0;
#X connect 4 9 14 0;
#X connect 4 10 15 0;
#X connect 4 11 16 0;
#X connect 4 12 17 0;
#X connect 4 13 18 0;
#X connect 4 14 19 0;
#X connect 4 15 20 0;
#X connect 5 0 26 0;
#X connect 5 0 46 0;
#X connect 5 0 62 0;
#X connect 6 0 44 0;
#X connect 6 0 60 0;
#X connect 6 0 76 0;
#X connect 7 0 42 0;
#X connect 7 0 58 0;
#X connect 7 0 74 0;
#X connect 8 0 43 0;
#X connect 8 0 59 0;
#X connect 8 0 75 0;
#X connect 9 0 40 0;
#X connect 9 0 56 0;
#X connect 9 0 72 0;
#X connect 10 0 41 0;
#X connect 10 0 57 0;
#X connect 10 0 73 0;
#X connect 11 0 38 0;
#X connect 11 0 54 0;
#X connect 11 0 70 0;
#X connect 12 0 39 0;
#X connect 12 0 55 0;
#X connect 12 0 71 0;
#X connect 13 0 30 0;
#X connect 13 0 45 0;
#X connect 13 0 61 0;
#X connect 14 0 37 0;
#X connect 14 0 53 0;
#X connect 14 0 69 0;
#X connect 15 0 35 0;
#X connect 15 0 51 0;
#X connect 15 0 67 0;
#X connect 16 0 36 0;
#X connect 16 0 52 0;
#X connect 16 0 68 0;
#X connect 17 0 33 0;
#X connect 17 0 49 0;
#X connect 17 0 65 0;
#X connect 18 0 34 0;
#X connect 18 0 50 0;
#X connect 18 0 66 0;
#X connect 19 0 31 0;
#X connect 19 0 47 0;
#X connect 19 0 63 0;
#X connect 20 0 32 0;
#X connect 20 0 48 0;
#X connect 20 0 64 0;
#X connect 21 0 2 0;
#X connect 22 0 79 0;
#X connect 23 0 79 0;
#X connect 24 0 79 0;
#X connect 25 0 21 0;
#X connect 27 0 46 1;
#X connect 27 0 60 1;
#X connect 27 0 58 1;
#X connect 27 0 59 1;
#X connect 27 0 56 1;
#X connect 27 0 57 1;
#X connect 27 0 54 1;
#X connect 27 0 55 1;
#X connect 27 0 45 1;
#X connect 27 0 53 1;
#X connect 27 0 51 1;
#X connect 27 0 52 1;
#X connect 27 0 49 1;
#X connect 27 0 50 1;
#X connect 27 0 47 1;
#X connect 27 0 48 1;
#X connect 28 0 27 0;
#X connect 29 0 32 1;
#X connect 29 0 31 1;
#X connect 29 0 34 1;
#X connect 29 0 33 1;
#X connect 29 0 36 1;
#X connect 29 0 35 1;
#X connect 29 0 37 1;
#X connect 29 0 30 1;
#X connect 29 0 39 1;
#X connect 29 0 38 1;
#X connect 29 0 41 1;
#X connect 29 0 40 1;
#X connect 29 0 43 1;
#X connect 29 0 26 1;
#X connect 29 0 44 1;
#X connect 29 0 42 1;
#X connect 77 0 62 1;
#X connect 77 0 76 1;
#X connect 77 0 74 1;
#X connect 77 0 75 1;
#X connect 77 0 72 1;
#X connect 77 0 73 1;
#X connect 77 0 70 1;
#X connect 77 0 71 1;
#X connect 77 0 61 1;
#X connect 77 0 69 1;
#X connect 77 0 67 1;
#X connect 77 0 68 1;
#X connect 77 0 65 1;
#X connect 77 0 66 1;
#X connect 77 0 63 1;
#X connect 77 0 64 1;
#X connect 78 0 79 0;
#X connect 79 0 21 1;
#X connect 80 0 81 0;
#X connect 80 1 82 0;
#X connect 80 2 83 0;
#X connect 80 3 84 0;
#X connect 80 4 85 0;
#X connect 80 5 86 0;
#X connect 80 6 87 0;
#X connect 80 7 88 0;
#X connect 80 8 89 0;
#X connect 80 9 90 0;
#X connect 80 10 91 0;
#X connect 80 11 92 0;
#X connect 80 12 93 0;
#X connect 80 13 94 0;
#X connect 80 14 95 0;
#X connect 80 15 96 0;
#X connect 81 0 97 0;
#X connect 81 0 117 0;
#X connect 81 0 133 0;
#X connect 82 0 115 0;
#X connect 82 0 131 0;
#X connect 82 0 147 0;
#X connect 83 0 113 0;
#X connect 83 0 129 0;
#X connect 83 0 145 0;
#X connect 84 0 114 0;
#X connect 84 0 130 0;
#X connect 84 0 146 0;
#X connect 85 0 111 0;
#X connect 85 0 127 0;
#X connect 85 0 143 0;
#X connect 86 0 112 0;
#X connect 86 0 128 0;
#X connect 86 0 144 0;
#X connect 87 0 109 0;
#X connect 87 0 125 0;
#X connect 87 0 141 0;
#X connect 88 0 110 0;
#X connect 88 0 126 0;
#X connect 88 0 142 0;
#X connect 89 0 101 0;
#X connect 89 0 116 0;
#X connect 89 0 132 0;
#X connect 90 0 108 0;
#X connect 90 0 124 0;
#X connect 90 0 140 0;
#X connect 91 0 106 0;
#X connect 91 0 122 0;
#X connect 91 0 138 0;
#X connect 92 0 107 0;
#X connect 92 0 123 0;
#X connect 92 0 139 0;
#X connect 93 0 104 0;
#X connect 93 0 120 0;
#X connect 93 0 136 0;
#X connect 94 0 105 0;
#X connect 94 0 121 0;
#X connect 94 0 137 0;
#X connect 95 0 102 0;
#X connect 95 0 118 0;
#X connect 95 0 134 0;
#X connect 96 0 103 0;
#X connect 96 0 119 0;
#X connect 96 0 135 0;
#X connect 98 0 117 1;
#X connect 98 0 131 1;
#X connect 98 0 129 1;
#X connect 98 0 130 1;
#X connect 98 0 127 1;
#X connect 98 0 128 1;
#X connect 98 0 125 1;
#X connect 98 0 126 1;
#X connect 98 0 116 1;
#X connect 98 0 124 1;
#X connect 98 0 122 1;
#X connect 98 0 123 1;
#X connect 98 0 120 1;
#X connect 98 0 121 1;
#X connect 98 0 118 1;
#X connect 98 0 119 1;
#X connect 99 0 98 0;
#X connect 100 0 103 1;
#X connect 100 0 102 1;
#X connect 100 0 105 1;
#X connect 100 0 104 1;
#X connect 100 0 107 1;
#X connect 100 0 106 1;
#X connect 100 0 108 1;
#X connect 100 0 101 1;
#X connect 100 0 110 1;
#X connect 100 0 109 1;
#X connect 100 0 112 1;
#X connect 100 0 111 1;
#X connect 100 0 114 1;
#X connect 100 0 97 1;
#X connect 100 0 115 1;
#X connect 100 0 113 1;
#X connect 148 0 133 1;
#X connect 148 0 147 1;
#X connect 148 0 145 1;
#X connect 148 0 146 1;
#X connect 148 0 143 1;
#X connect 148 0 144 1;
#X connect 148 0 141 1;
#X connect 148 0 142 1;
#X connect 148 0 132 1;
#X connect 148 0 140 1;
#X connect 148 0 138 1;
#X connect 148 0 139 1;
#X connect 148 0 136 1;
#X connect 148 0 137 1;
#X connect 148 0 134 1;
#X connect 148 0 135 1;
#X connect 149 0 4 0;
#X connect 150 0 149 1;
#X connect 151 0 80 0;
#X connect 152 0 151 1;
