#N canvas 487 139 480 779 10;
#X obj 103 119 vsl 15 128 0 1 0 0 empty empty empty 0 -9 0 10 -262144
-1 -1 12700 1;
#X obj 29 328 <;
#X floatatom 44 295 5 0 0 0 - - -;
#X obj 29 385 spigot 1;
#X obj 29 412 bng 15 250 50 0 empty empty empty 17 7 0 10 -262144 -1
-1;
#X obj 29 360 t f f;
#X obj 52 551 noteout;
#X msg 60 518 127;
#X obj 29 480 t b b b;
#X msg 91 518 2;
#X obj 27 28 inlet;
#X obj 104 255 bng 15 250 50 0 empty empty empty 17 7 0 10 -262144
-1 -1;
#X floatatom 103 274 5 0 0 0 - - -;
#X floatatom 20 519 5 0 0 0 - - -;
#X floatatom 31 219 5 0 0 0 - - -;
#X obj 31 192 / 1000;
#X obj 31 163 random 1000;
#X obj 36 134 bng 15 250 50 0 empty empty empty 17 7 0 10 -262144 -1
-1;
#X obj 201 113 inlet;
#X connect 0 0 2 0;
#X connect 1 0 5 0;
#X connect 2 0 1 1;
#X connect 3 0 4 0;
#X connect 4 0 8 0;
#X connect 4 0 11 0;
#X connect 5 0 3 0;
#X connect 5 1 3 1;
#X connect 7 0 6 1;
#X connect 8 0 13 0;
#X connect 8 1 7 0;
#X connect 8 2 9 0;
#X connect 9 0 6 2;
#X connect 10 0 17 0;
#X connect 12 0 13 0;
#X connect 13 0 6 0;
#X connect 14 0 1 0;
#X connect 15 0 14 0;
#X connect 16 0 15 0;
#X connect 17 0 16 0;
#X connect 18 0 12 0;
#X coords 0 -1 1 1 40 195 1 100 100;
