#N canvas 924 289 772 621 10;
#N canvas 872 156 825 325 sine 0;
#X obj -98 261 ctlout 1;
#X obj -23 261 ctlout 2;
#X obj 52 261 ctlout 3;
#X obj 127 261 ctlout 4;
#X obj 202 261 ctlout 5;
#X obj 277 261 ctlout 6;
#X obj 352 261 ctlout 7;
#X obj 427 261 ctlout 8;
#X floatatom -98 234 5 0 127 1 - - -;
#X floatatom -23 234 5 0 127 1 - - -;
#X floatatom 52 234 5 0 127 1 - - -;
#X floatatom 127 234 5 0 127 1 - - -;
#X floatatom 202 234 5 0 127 1 - - -;
#X floatatom 277 234 5 0 127 1 - - -;
#X floatatom 352 234 5 0 127 1 - - -;
#X floatatom 427 234 5 0 127 1 - - -;
#X obj 552 107 * 127;
#X obj 526 4 osc~ 1;
#X obj 571 32 snapshot~;
#X obj 577 -14 tgl 15 0 empty empty empty 17 7 0 10 -262144 -1 -1 0
1;
#X floatatom 553 83 5 0 0 0 - - -;
#X obj 578 5 metro 30;
#X obj 543 61 expr ($f1 * 0.5) + 0.5;
#X obj 403 2 inlet;
#X connect 8 0 0 0;
#X connect 9 0 1 0;
#X connect 10 0 2 0;
#X connect 11 0 3 0;
#X connect 12 0 4 0;
#X connect 13 0 5 0;
#X connect 14 0 6 0;
#X connect 15 0 7 0;
#X connect 16 0 15 0;
#X connect 16 0 14 0;
#X connect 16 0 13 0;
#X connect 16 0 12 0;
#X connect 16 0 11 0;
#X connect 16 0 10 0;
#X connect 16 0 9 0;
#X connect 16 0 8 0;
#X connect 17 0 18 0;
#X connect 18 0 22 0;
#X connect 19 0 21 0;
#X connect 20 0 16 0;
#X connect 21 0 18 0;
#X connect 22 0 20 0;
#X connect 23 0 19 0;
#X restore -33 54 pd sine;
#X obj -33 30 tgl 15 0 empty empty empty 17 7 0 10 -262144 -1 -1 0
1;
#N canvas 0 22 370 315 random 0;
#X obj 173 31 inlet;
#X obj 164 171 random 24;
#X obj 96 170 random 127;
#X obj 119 246 ctlout;
#X obj 120 223 pack f f 1;
#X obj 135 144 t b b;
#X obj 165 72 tgl 15 0 empty empty empty 17 7 0 10 -262144 -1 -1 0
1;
#X obj 165 91 metro 5;
#X obj 164 194 + 81;
#X connect 0 0 6 0;
#X connect 1 0 8 0;
#X connect 2 0 4 0;
#X connect 4 0 3 0;
#X connect 5 0 2 0;
#X connect 5 1 1 0;
#X connect 6 0 7 0;
#X connect 7 0 5 0;
#X connect 8 0 4 1;
#X restore -32 201 pd random;
#X obj -32 171 tgl 15 0 empty empty empty 17 7 0 10 -262144 -1 -1 0
1;
#N canvas 0 22 356 424 knightrider 0;
#X obj 111 24 inlet;
#X obj 113 48 tgl 15 0 empty empty empty 17 7 0 10 -262144 -1 -1 0
1;
#X obj 113 89 f;
#X obj 141 89 + 1;
#X floatatom 113 140 5 0 0 0 - - -;
#X obj 200 375 ctlout;
#X obj 171 156 == 0;
#X obj 200 211 tgl 15 0 empty empty empty 17 7 0 10 -262144 -1 -1 1
1;
#X obj 238 209 tgl 15 0 empty empty empty 17 7 0 10 -262144 -1 -1 0
1;
#X obj 150 264 spigot;
#X obj 220 264 spigot;
#X obj 218 173 route 1;
#X obj 136 343 pack 127 f 1;
#X obj 225 342 pack 0 f 1;
#X obj 230 299 t b f;
#X obj 137 308 t b f;
#X obj 144 210 + 65;
#X obj 113 115 % 16;
#X obj 113 67 metro 40;
#X obj 234 103 loadbang;
#X msg 259 134 0;
#X msg 227 133 1;
#X connect 0 0 1 0;
#X connect 1 0 18 0;
#X connect 2 0 3 0;
#X connect 2 0 17 0;
#X connect 3 0 2 1;
#X connect 4 0 6 0;
#X connect 4 0 16 0;
#X connect 6 0 11 0;
#X connect 7 0 9 1;
#X connect 8 0 10 1;
#X connect 9 0 15 0;
#X connect 10 0 14 0;
#X connect 11 0 7 0;
#X connect 11 0 8 0;
#X connect 12 0 5 0;
#X connect 13 0 5 0;
#X connect 14 0 13 0;
#X connect 14 1 13 1;
#X connect 15 0 12 0;
#X connect 15 1 12 1;
#X connect 16 0 9 0;
#X connect 16 0 10 0;
#X connect 17 0 4 0;
#X connect 18 0 2 0;
#X connect 19 0 21 0;
#X connect 19 0 20 0;
#X connect 20 0 8 0;
#X connect 21 0 7 0;
#X restore -34 126 pd knightrider;
#X obj -34 100 tgl 15 0 empty empty empty 17 7 0 10 -262144 -1 -1 0
1;
#X obj 19 30 tgl 15 0 empty empty empty 17 7 0 10 -262144 -1 -1 0 1
;
#N canvas 348 145 1153 836 sine2 0;
#X obj 179 639 ctlout 1;
#X obj 242 646 ctlout 2;
#X obj 317 646 ctlout 3;
#X obj 392 646 ctlout 4;
#X obj 467 646 ctlout 5;
#X obj 542 646 ctlout 6;
#X obj 617 646 ctlout 7;
#X obj 692 646 ctlout 8;
#X floatatom 179 612 5 0 127 1 - - -;
#X floatatom 242 619 5 0 127 1 - - -;
#X floatatom 317 619 5 0 127 1 - - -;
#X floatatom 392 619 5 0 127 1 - - -;
#X floatatom 467 619 5 0 127 1 - - -;
#X floatatom 542 619 5 0 127 1 - - -;
#X floatatom 617 619 5 0 127 1 - - -;
#X floatatom 692 619 5 0 127 1 - - -;
#X obj 403 2 inlet;
#X obj 49 96 tgl 15 0 empty empty empty 17 7 0 10 -262144 -1 -1 0 1
;
#X obj 49 137 f;
#X obj 182 590 hsl 128 15 0 127 0 0 empty empty empty -2 -8 0 10 -262144
-1 -1 12076 1;
#X obj 77 137 + 0.03;
#N canvas 669 346 566 386 sinegen 0;
#X obj 81 189 sin;
#X obj 81 215 expr 127 * (($f1 * 0.5) + 0.5);
#X obj 79 36 inlet;
#X obj 90 289 outlet;
#X obj 202 28 inlet;
#X obj 101 156 + 0;
#X obj 221 108 expr (3.1415 / 8) * $f1;
#X connect 0 0 1 0;
#X connect 1 0 3 0;
#X connect 2 0 5 0;
#X connect 4 0 6 0;
#X connect 5 0 0 0;
#X connect 6 0 5 1;
#X restore 14 444 pd sinegen;
#X floatatom 71 419 5 0 0 0 - - -;
#N canvas 669 346 566 386 sinegen 0;
#X obj 81 189 sin;
#X obj 81 215 expr 127 * (($f1 * 0.5) + 0.5);
#X obj 79 36 inlet;
#X obj 90 289 outlet;
#X obj 202 28 inlet;
#X obj 101 156 + 0;
#X obj 221 108 expr (3.1415 / 8) * $f1;
#X connect 0 0 1 0;
#X connect 1 0 3 0;
#X connect 2 0 5 0;
#X connect 4 0 6 0;
#X connect 5 0 0 0;
#X connect 6 0 5 1;
#X restore 84 444 pd sinegen;
#X floatatom 141 419 5 0 0 0 - - -;
#N canvas 669 346 566 386 sinegen 0;
#X obj 81 189 sin;
#X obj 81 215 expr 127 * (($f1 * 0.5) + 0.5);
#X obj 79 36 inlet;
#X obj 90 289 outlet;
#X obj 202 28 inlet;
#X obj 101 156 + 0;
#X obj 221 108 expr (3.1415 / 8) * $f1;
#X connect 0 0 1 0;
#X connect 1 0 3 0;
#X connect 2 0 5 0;
#X connect 4 0 6 0;
#X connect 5 0 0 0;
#X connect 6 0 5 1;
#X restore 154 444 pd sinegen;
#X floatatom 211 419 5 0 0 0 - - -;
#N canvas 669 346 566 386 sinegen 0;
#X obj 81 189 sin;
#X obj 81 215 expr 127 * (($f1 * 0.5) + 0.5);
#X obj 79 36 inlet;
#X obj 90 289 outlet;
#X obj 202 28 inlet;
#X obj 101 156 + 0;
#X obj 221 108 expr (3.1415 / 8) * $f1;
#X connect 0 0 1 0;
#X connect 1 0 3 0;
#X connect 2 0 5 0;
#X connect 4 0 6 0;
#X connect 5 0 0 0;
#X connect 6 0 5 1;
#X restore 224 444 pd sinegen;
#X floatatom 281 419 5 0 0 0 - - -;
#N canvas 669 346 566 386 sinegen 0;
#X obj 81 189 sin;
#X obj 81 215 expr 127 * (($f1 * 0.5) + 0.5);
#X obj 79 36 inlet;
#X obj 90 289 outlet;
#X obj 202 28 inlet;
#X obj 101 156 + 0;
#X obj 221 108 expr (3.1415 / 8) * $f1;
#X connect 0 0 1 0;
#X connect 1 0 3 0;
#X connect 2 0 5 0;
#X connect 4 0 6 0;
#X connect 5 0 0 0;
#X connect 6 0 5 1;
#X restore 294 444 pd sinegen;
#X floatatom 351 419 5 0 0 0 - - -;
#N canvas 669 346 566 386 sinegen 0;
#X obj 81 189 sin;
#X obj 81 215 expr 127 * (($f1 * 0.5) + 0.5);
#X obj 79 36 inlet;
#X obj 90 289 outlet;
#X obj 202 28 inlet;
#X obj 101 156 + 0;
#X obj 221 108 expr (3.1415 / 8) * $f1;
#X connect 0 0 1 0;
#X connect 1 0 3 0;
#X connect 2 0 5 0;
#X connect 4 0 6 0;
#X connect 5 0 0 0;
#X connect 6 0 5 1;
#X restore 364 444 pd sinegen;
#X floatatom 421 419 5 0 0 0 - - -;
#N canvas 669 346 566 386 sinegen 0;
#X obj 81 189 sin;
#X obj 81 215 expr 127 * (($f1 * 0.5) + 0.5);
#X obj 79 36 inlet;
#X obj 90 289 outlet;
#X obj 202 28 inlet;
#X obj 101 156 + 0;
#X obj 221 108 expr (3.1415 / 8) * $f1;
#X connect 0 0 1 0;
#X connect 1 0 3 0;
#X connect 2 0 5 0;
#X connect 4 0 6 0;
#X connect 5 0 0 0;
#X connect 6 0 5 1;
#X restore 434 444 pd sinegen;
#X floatatom 491 419 5 0 0 0 - - -;
#N canvas 669 346 566 386 sinegen 0;
#X obj 81 189 sin;
#X obj 81 215 expr 127 * (($f1 * 0.5) + 0.5);
#X obj 79 36 inlet;
#X obj 90 289 outlet;
#X obj 202 28 inlet;
#X obj 101 156 + 0;
#X obj 221 108 expr (3.1415 / 8) * $f1;
#X connect 0 0 1 0;
#X connect 1 0 3 0;
#X connect 2 0 5 0;
#X connect 4 0 6 0;
#X connect 5 0 0 0;
#X connect 6 0 5 1;
#X restore 504 444 pd sinegen;
#X floatatom 561 419 5 0 0 0 - - -;
#X obj 14 471 ctlout 1;
#X obj 84 471 ctlout 2;
#X obj 154 471 ctlout 3;
#X obj 224 471 ctlout 4;
#X obj 294 471 ctlout 5;
#X obj 364 471 ctlout 6;
#X obj 434 471 ctlout 7;
#X obj 504 471 ctlout 8;
#X msg 72 385 7;
#X msg 143 389 6;
#X msg 211 388 5;
#X msg 286 390 4;
#X msg 354 385 3;
#X msg 426 388 2;
#X msg 491 386 1;
#X msg 562 387 0;
#X obj 394 308 loadbang;
#X obj 394 327 bng 15 250 50 0 empty empty empty 17 7 0 10 -262144
-1 -1;
#X obj 49 115 metro 4;
#X connect 8 0 0 0;
#X connect 9 0 1 0;
#X connect 10 0 2 0;
#X connect 11 0 3 0;
#X connect 12 0 4 0;
#X connect 13 0 5 0;
#X connect 14 0 6 0;
#X connect 15 0 7 0;
#X connect 16 0 17 0;
#X connect 17 0 55 0;
#X connect 18 0 20 0;
#X connect 18 0 21 0;
#X connect 18 0 23 0;
#X connect 18 0 25 0;
#X connect 18 0 27 0;
#X connect 18 0 29 0;
#X connect 18 0 31 0;
#X connect 18 0 33 0;
#X connect 18 0 35 0;
#X connect 19 0 8 0;
#X connect 20 0 18 1;
#X connect 21 0 37 0;
#X connect 22 0 21 1;
#X connect 23 0 38 0;
#X connect 24 0 23 1;
#X connect 25 0 39 0;
#X connect 26 0 25 1;
#X connect 27 0 40 0;
#X connect 28 0 27 1;
#X connect 29 0 41 0;
#X connect 30 0 29 1;
#X connect 31 0 42 0;
#X connect 32 0 31 1;
#X connect 33 0 43 0;
#X connect 34 0 33 1;
#X connect 35 0 44 0;
#X connect 36 0 35 1;
#X connect 45 0 22 0;
#X connect 46 0 24 0;
#X connect 47 0 26 0;
#X connect 48 0 28 0;
#X connect 49 0 30 0;
#X connect 50 0 32 0;
#X connect 51 0 34 0;
#X connect 52 0 36 0;
#X connect 53 0 54 0;
#X connect 54 0 45 0;
#X connect 54 0 46 0;
#X connect 54 0 47 0;
#X connect 54 0 48 0;
#X connect 54 0 49 0;
#X connect 54 0 50 0;
#X connect 54 0 51 0;
#X connect 54 0 52 0;
#X connect 55 0 18 0;
#X restore 19 54 pd sine2;
#X connect 1 0 0 0;
#X connect 3 0 2 0;
#X connect 5 0 4 0;
#X connect 6 0 7 0;
